<svg width="11" height="20" viewBox="0 0 11 20" fill="none" xmlns="http://www.w3.org/2000/svg">
<path d="M1.02023 16.0564L1.02018 16.0564C0.693063 16.4286 0.500148 16.9458 0.5 17.4965L1.02023 16.0564ZM1.02023 16.0564L6.06505 10.3149L6.35504 9.98488M1.02023 16.0564L6.35504 9.98488M6.35504 9.98488L6.06505 9.65485M6.35504 9.98488L6.06505 9.65485M6.06505 9.65485L1.02326 3.91682M6.06505 9.65485L1.02326 3.91682M1.02326 3.91682C0.706523 3.54198 0.522959 3.029 0.527105 2.48597C0.531262 1.94147 0.723638 1.43146 1.04703 1.06341C1.36869 0.697337 1.78921 0.504261 2.21296 0.50007C2.63539 0.495892 3.05686 0.679445 3.38297 1.03634L9.98019 8.54459C9.9802 8.54461 9.98022 8.54463 9.98024 8.54465C10.3072 8.91695 10.5 9.43417 10.5 9.98488C10.5 10.5356 10.3072 11.0528 9.98024 11.4251C9.98022 11.4251 9.9802 11.4252 9.98019 11.4252L3.38 18.9368C3.13708 19.2132 2.83584 19.3925 2.51882 19.4642C2.20272 19.5358 1.8742 19.4999 1.57141 19.3572C1.26735 19.2138 0.996859 18.9659 0.802083 18.6342C0.607141 18.3023 0.50011 17.9063 0.5 17.4967L1.02326 3.91682Z" stroke="#424242"/>
</svg>
