<svg width="26" height="14" viewBox="0 0 26 14" fill="none" xmlns="http://www.w3.org/2000/svg">
<path d="M22.7456 14C21.8824 13.9998 21.0546 13.7047 20.4443 13.1796L12.9803 6.75889L5.51643 13.1796C4.90252 13.6896 4.08028 13.9719 3.2268 13.9655C2.37333 13.9591 1.55691 13.6646 0.953392 13.1455C0.349873 12.6263 0.0075395 11.924 0.000123051 11.1898C-0.0072934 10.4556 0.320801 9.74831 0.913741 9.2202L10.679 0.819838C11.2894 0.294896 12.1172 0 12.9803 0C13.8435 0 14.6713 0.294896 15.2817 0.819838L25.047 9.2202C25.502 9.6118 25.8119 10.1107 25.9375 10.6538C26.063 11.1969 25.9986 11.7598 25.7523 12.2714C25.5059 12.7829 25.0888 13.2202 24.5537 13.5279C24.0185 13.8356 23.3893 13.9999 22.7456 14Z" fill="white" fill-opacity="0.5"/>
</svg>
