<svg width="40" height="40" viewBox="0 0 40 40" fill="none" xmlns="http://www.w3.org/2000/svg">
<path d="M20 5H8.33333C7.44928 5 6.60143 5.35119 5.97631 5.97631C5.35119 6.60143 5 7.44928 5 8.33333V31.6667C5 32.5507 5.35119 33.3986 5.97631 34.0237C6.60143 34.6488 7.44928 35 8.33333 35H31.6667C32.5507 35 33.3986 34.6488 34.0237 34.0237C34.6488 33.3986 35 32.5507 35 31.6667V20" stroke="current" stroke-width="2" stroke-linecap="round" stroke-linejoin="round"/>
<path d="M30.6257 4.37538C31.2887 3.71234 32.188 3.33984 33.1257 3.33984C34.0633 3.33984 34.9626 3.71234 35.6257 4.37538C36.2887 5.03842 36.6612 5.9377 36.6612 6.87538C36.6612 7.81306 36.2887 8.71234 35.6257 9.37538L20.0007 25.0004L13.334 26.667L15.0007 20.0004L30.6257 4.37538Z" stroke="current"     stroke-width="2" stroke-linecap="round" stroke-linejoin="round"/>
</svg>
