<svg width="32" height="32" viewBox="0 0 32 32" fill="none" xmlns="http://www.w3.org/2000/svg">
<path d="M1 16C1 8.92947 1 5.39263 3.19632 3.19632C5.39263 1 8.92789 1 16 1C23.0705 1 26.6074 1 28.8037 3.19632C31 5.39263 31 8.92789 31 16C31 23.0705 31 26.6074 28.8037 28.8037C26.6074 31 23.0721 31 16 31C8.92947 31 5.39263 31 3.19632 28.8037C1 26.6074 1 23.0721 1 16Z" stroke="#424242" stroke-width="2" stroke-linecap="round" stroke-linejoin="round"/>
<path d="M12.8423 10.4739C12.8423 9.84575 12.5928 9.24333 12.1486 8.79916C11.7045 8.355 11.102 8.10547 10.4739 8.10547C9.84575 8.10547 9.24333 8.355 8.79916 8.79916C8.355 9.24333 8.10547 9.84575 8.10547 10.4739C8.10547 11.102 8.355 11.7045 8.79916 12.1486C9.24333 12.5928 9.84575 12.8423 10.4739 12.8423C11.102 12.8423 11.7045 12.5928 12.1486 12.1486C12.5928 11.7045 12.8423 11.102 12.8423 10.4739ZM12.8423 10.4739H23.8949M19.1581 21.5265C19.1581 20.8984 19.4076 20.296 19.8518 19.8518C20.296 19.4076 20.8984 19.1581 21.5265 19.1581C22.1547 19.1581 22.7571 19.4076 23.2012 19.8518C23.6454 20.296 23.8949 20.8984 23.8949 21.5265C23.8949 22.1547 23.6454 22.7571 23.2012 23.2012C22.7571 23.6454 22.1547 23.8949 21.5265 23.8949C20.8984 23.8949 20.296 23.6454 19.8518 23.2012C19.4076 22.7571 19.1581 22.1547 19.1581 21.5265ZM19.1581 21.5265H8.10547" stroke="#424242" stroke-width="2" stroke-linecap="round" stroke-linejoin="round"/>
</svg>
