<svg width="94" height="40" viewBox="0 0 94 40" fill="none" xmlns="http://www.w3.org/2000/svg">
<path d="M6.77471 20.0408V6.53855H5.40561C4.72892 6.53855 4.17813 6.57003 3.75324 6.63297C3.32834 6.68018 3.01361 6.78247 2.80903 6.93984C2.60445 7.08147 2.48642 7.29392 2.45495 7.57718L2.2425 9.8905H0.944211V5.24026H14.8241V9.8905H13.5258L13.3134 7.57718C13.2819 7.29392 13.156 7.08147 12.9357 6.93984C12.7311 6.78247 12.4164 6.68018 11.9915 6.63297C11.5666 6.57003 11.0237 6.53855 10.3627 6.53855H8.97V20.0408C8.97 20.387 9.15884 20.6152 9.53653 20.7253C9.91421 20.8355 10.3942 20.8906 10.9764 20.8906H11.3541V22H4.41418V20.8906H4.79187C5.35839 20.8906 5.8305 20.8355 6.20818 20.7253C6.58587 20.6152 6.77471 20.387 6.77471 20.0408ZM22.8621 14.7296V15.9098C22.0752 15.9885 21.3749 16.0908 20.7612 16.2167C20.1475 16.3426 19.6124 16.4921 19.156 16.6652C18.7154 16.8383 18.3535 17.0429 18.0702 17.2789C17.7869 17.4993 17.5745 17.7589 17.4329 18.0579C17.2912 18.3569 17.2204 18.6874 17.2204 19.0493C17.2204 19.427 17.307 19.7654 17.4801 20.0644C17.6532 20.3476 17.8971 20.5679 18.2118 20.7253C18.5266 20.8827 18.8885 20.9614 19.2977 20.9614C19.8485 20.9614 20.3363 20.8276 20.7612 20.5601C21.2018 20.2926 21.5874 19.9149 21.9179 19.427C22.2483 18.9392 22.5395 18.3648 22.7913 17.7038L22.8149 19.3562C22.5788 19.9385 22.2641 20.4499 21.8706 20.8906C21.4772 21.3154 21.0209 21.6459 20.5015 21.882C19.9822 22.118 19.3921 22.2361 18.7311 22.2361C18.0545 22.2361 17.4329 22.1102 16.8663 21.8584C16.3155 21.6066 15.867 21.2446 15.5208 20.7725C15.1904 20.2847 15.0251 19.7182 15.0251 19.0729C15.0251 18.4277 15.1904 17.8691 15.5208 17.397C15.8513 16.9091 16.347 16.4921 17.008 16.1459C17.6689 15.7997 18.4872 15.5164 19.4629 15.2961C20.4386 15.0601 21.5716 14.8712 22.8621 14.7296ZM22.4608 22V19.4742L22.2247 19.4034V13.7382C22.2247 13.0615 22.1303 12.5343 21.9415 12.1566C21.7684 11.7632 21.5087 11.4878 21.1625 11.3304C20.8163 11.1731 20.3914 11.0944 19.8878 11.0944C19.101 11.0944 18.4558 11.2517 17.9522 11.5665C17.4643 11.8812 17.0709 12.251 16.7719 12.6759C16.7404 12.4871 16.7483 12.314 16.7955 12.1566C16.8427 11.9992 16.9135 11.8576 17.008 11.7317C17.1181 11.6058 17.2361 11.4957 17.362 11.4012C17.5037 11.3068 17.6532 11.2281 17.8105 11.1652V13.5965H15.7569V11.1888C15.9929 10.9999 16.3077 10.7954 16.7011 10.5751C17.1103 10.3547 17.5981 10.1659 18.1646 10.0085C18.7311 9.85116 19.3528 9.77247 20.0294 9.77247C20.5802 9.77247 21.1074 9.83542 21.611 9.96131C22.1146 10.0872 22.5709 10.2997 22.9801 10.5987C23.3893 10.8819 23.7119 11.2675 23.9479 11.7553C24.184 12.2274 24.302 12.8176 24.302 13.5257V20.088C24.302 20.3083 24.3885 20.4814 24.5616 20.6073C24.7348 20.7332 24.9629 20.8197 25.2462 20.8669C25.5452 20.9142 25.8835 20.9378 26.2612 20.9378V22H22.4608ZM30.9821 4.65013V20.088C30.9821 20.4342 31.1631 20.6624 31.525 20.7725C31.887 20.8827 32.3512 20.9378 32.9177 20.9378H32.9649V22H26.8984V20.9378H26.9456C27.5121 20.9378 27.9764 20.8827 28.3383 20.7725C28.7002 20.6624 28.8812 20.4342 28.8812 20.088V6.82182C28.8812 6.58576 28.8183 6.40479 28.6924 6.27889C28.5665 6.153 28.3776 6.05071 28.1259 5.97203C27.8741 5.89334 27.5436 5.82253 27.1344 5.75958L26.8748 5.71237V4.65013H30.9821ZM47.3073 22H41.2172V20.9378H41.288C41.5083 20.9378 41.7522 20.9299 42.0198 20.9142C42.2873 20.8984 42.5155 20.8748 42.7043 20.8433C42.8932 20.7961 42.9876 20.7489 42.9876 20.7017L38.5026 15.6738V15.5558L42.7751 11.4721C42.7751 11.3462 42.665 11.2596 42.4447 11.2124C42.2243 11.1494 41.9647 11.1101 41.6657 11.0944C41.3824 11.0629 41.1228 11.0472 40.8867 11.0472H40.7687V10.0085H46.5992V11.0472H46.552C46.2372 11.0472 45.9225 11.0865 45.6078 11.1652C45.3088 11.2439 45.0098 11.3698 44.7108 11.5429C44.4118 11.716 44.1206 11.9363 43.8374 12.2038L40.1786 15.721L40.2258 14.706L44.994 20.0408C45.2301 20.2926 45.4661 20.4814 45.7022 20.6073C45.9382 20.7332 46.19 20.8197 46.4576 20.8669C46.7251 20.9142 46.9926 20.9378 47.2601 20.9378H47.3073V22ZM37.9125 4.65013V20.7017C37.9125 20.7489 38.0069 20.7961 38.1957 20.8433C38.4003 20.8748 38.6363 20.8984 38.9039 20.9142C39.1714 20.9299 39.4075 20.9378 39.612 20.9378H39.6828V22H33.8287V20.9378H33.876C34.4425 20.9378 34.9067 20.8827 35.2687 20.7725C35.6306 20.6624 35.8116 20.4342 35.8116 20.088V6.82182C35.8116 6.58576 35.7486 6.40479 35.6227 6.27889C35.4968 6.153 35.308 6.05071 35.0562 5.97203C34.8044 5.89334 34.474 5.82253 34.0648 5.75958L33.8051 5.71237V4.65013H37.9125Z" fill="#424242"/>
<path d="M51.931 31.3298V17.8276H50.5619C49.8852 17.8276 49.3344 17.8591 48.9095 17.922C48.4846 17.9692 48.1699 18.0715 47.9653 18.2289C47.7607 18.3705 47.6427 18.583 47.6112 18.8662L47.3988 21.1796H46.1005V16.5293H59.9804V21.1796H58.6821L58.4696 18.8662C58.4381 18.583 58.3123 18.3705 58.0919 18.2289C57.8874 18.0715 57.5726 17.9692 57.1477 17.922C56.7228 17.8591 56.1799 17.8276 55.519 17.8276H54.1263V31.3298C54.1263 31.676 54.3151 31.9042 54.6928 32.0144C55.0705 32.1245 55.5504 32.1796 56.1327 32.1796H56.5104V33.2891H49.5704V32.1796H49.9481C50.5146 32.1796 50.9868 32.1245 51.3644 32.0144C51.7421 31.9042 51.931 31.676 51.931 31.3298ZM68.0183 26.0186V27.1989C67.2315 27.2776 66.5312 27.3799 65.9174 27.5058C65.3037 27.6317 64.7687 27.7812 64.3123 27.9543C63.8717 28.1274 63.5097 28.332 63.2264 28.568C62.9432 28.7883 62.7307 29.048 62.5891 29.347C62.4475 29.646 62.3767 29.9765 62.3767 30.3384C62.3767 30.7161 62.4632 31.0544 62.6363 31.3534C62.8094 31.6367 63.0533 31.857 63.3681 32.0144C63.6828 32.1717 64.0448 32.2504 64.4539 32.2504C65.0047 32.2504 65.4926 32.1167 65.9174 31.8491C66.3581 31.5816 66.7436 31.2039 67.0741 30.7161C67.4046 30.2282 67.6957 29.6539 67.9475 28.9929L67.9711 30.6453C67.7351 31.2275 67.4203 31.739 67.0269 32.1796C66.6335 32.6045 66.1771 32.935 65.6578 33.171C65.1385 33.4071 64.5483 33.5251 63.8874 33.5251C63.2107 33.5251 62.5891 33.3992 62.0226 33.1474C61.4718 32.8956 61.0233 32.5337 60.6771 32.0616C60.3466 31.5737 60.1814 31.0072 60.1814 30.362C60.1814 29.7168 60.3466 29.1581 60.6771 28.686C61.0076 28.1982 61.5033 27.7812 62.1642 27.435C62.8252 27.0887 63.6435 26.8055 64.6192 26.5852C65.5948 26.3491 66.7279 26.1603 68.0183 26.0186ZM67.617 33.2891V30.7633L67.381 30.6925V25.0272C67.381 24.3505 67.2866 23.8234 67.0977 23.4457C66.9246 23.0522 66.6649 22.7769 66.3187 22.6195C65.9725 22.4621 65.5476 22.3834 65.0441 22.3834C64.2572 22.3834 63.612 22.5408 63.1084 22.8555C62.6206 23.1703 62.2272 23.5401 61.9282 23.965C61.8967 23.7761 61.9046 23.603 61.9518 23.4457C61.999 23.2883 62.0698 23.1467 62.1642 23.0208C62.2744 22.8949 62.3924 22.7847 62.5183 22.6903C62.6599 22.5959 62.8094 22.5172 62.9668 22.4542V24.8856H60.9131V22.4779C61.1492 22.289 61.4639 22.0844 61.8573 21.8641C62.2665 21.6438 62.7543 21.455 63.3209 21.2976C63.8874 21.1402 64.509 21.0615 65.1857 21.0615C65.7365 21.0615 66.2637 21.1245 66.7672 21.2504C67.2708 21.3763 67.7272 21.5887 68.1363 21.8877C68.5455 22.171 68.8681 22.5565 69.1042 23.0444C69.3402 23.5165 69.4582 24.1066 69.4582 24.8148V31.377C69.4582 31.5974 69.5448 31.7705 69.7179 31.8964C69.891 32.0222 70.1192 32.1088 70.4024 32.156C70.7014 32.2032 71.0398 32.2268 71.4175 32.2268V33.2891H67.617ZM76.1383 15.9392V31.377C76.1383 31.7232 76.3193 31.9514 76.6813 32.0616C77.0432 32.1717 77.5074 32.2268 78.074 32.2268H78.1212V33.2891H72.0546V32.2268H72.1018C72.6684 32.2268 73.1326 32.1717 73.4946 32.0616C73.8565 31.9514 74.0375 31.7232 74.0375 31.377V18.1109C74.0375 17.8748 73.9745 17.6939 73.8486 17.568C73.7227 17.4421 73.5339 17.3398 73.2821 17.2611C73.0303 17.1824 72.6998 17.1116 72.2907 17.0486L72.031 17.0014V15.9392H76.1383ZM92.4636 33.2891H86.3734V32.2268H86.4443C86.6646 32.2268 86.9085 32.219 87.176 32.2032C87.4435 32.1875 87.6717 32.1639 87.8606 32.1324C88.0494 32.0852 88.1438 32.038 88.1438 31.9908L83.6588 26.9629V26.8448L87.9314 22.7611C87.9314 22.6352 87.8212 22.5487 87.6009 22.5015C87.3806 22.4385 87.1209 22.3992 86.8219 22.3834C86.5387 22.352 86.279 22.3362 86.043 22.3362H85.9249V21.2976H91.7554V22.3362H91.7082C91.3935 22.3362 91.0788 22.3756 90.764 22.4542C90.465 22.5329 90.166 22.6588 89.867 22.8319C89.568 23.005 89.2769 23.2254 88.9936 23.4929L85.3348 27.0101L85.382 25.995L90.1503 31.3298C90.3863 31.5816 90.6224 31.7705 90.8584 31.8964C91.0945 32.0222 91.3463 32.1088 91.6138 32.156C91.8813 32.2032 92.1489 32.2268 92.4164 32.2268H92.4636V33.2891ZM83.0687 15.9392V31.9908C83.0687 32.038 83.1631 32.0852 83.352 32.1324C83.5565 32.1639 83.7926 32.1875 84.0601 32.2032C84.3276 32.219 84.5637 32.2268 84.7683 32.2268H84.8391V33.2891H78.985V32.2268H79.0322C79.5987 32.2268 80.063 32.1717 80.4249 32.0616C80.7869 31.9514 80.9678 31.7232 80.9678 31.377V18.1109C80.9678 17.8748 80.9049 17.6939 80.779 17.568C80.6531 17.4421 80.4643 17.3398 80.2125 17.2611C79.9607 17.1824 79.6302 17.1116 79.221 17.0486L78.9614 17.0014V15.9392H83.0687Z" fill="#424242"/>
</svg>
