<svg width="77" height="36" viewBox="0 0 77 36" fill="none" xmlns="http://www.w3.org/2000/svg">
<path d="M1.872 32.352C1.872 29.952 2.256 27.904 3.024 26.208C3.792 24.48 5.168 22.576 7.152 20.496C9.104 18.416 10.448 16.64 11.184 15.168C11.952 13.696 12.336 12.16 12.336 10.56C12.336 9.12 12.096 8.128 11.616 7.584C11.168 7.008 10.496 6.72 9.6 6.72C7.776 6.72 6.864 7.824 6.864 10.032V13.632H1.872V10.368C1.872 7.648 2.544 5.568 3.888 4.128C5.232 2.656 7.184 1.92 9.744 1.92C12.304 1.92 14.256 2.656 15.6 4.128C16.944 5.568 17.616 7.648 17.616 10.368C17.616 12.416 17.12 14.416 16.128 16.368C15.168 18.32 13.488 20.56 11.088 23.088C9.52 24.752 8.464 26.112 7.92 27.168C7.376 28.192 7.104 29.296 7.104 30.48V31.2H17.136V36H1.872V32.352Z" fill="url(#paint0_linear_104_333)"/>
<path d="M22.08 6H17.48V2H31.08V6H26.48V30H22.08V6ZM34.7744 2H40.7344L45.2944 30H40.8944L40.0944 24.44V24.52H35.0944L34.2944 30H30.2144L34.7744 2ZM39.5744 20.72L37.6144 6.88H37.5344L35.6144 20.72H39.5744ZM47.4291 2H51.8291V26H59.0691V30H47.4291V2ZM61.1791 2H65.5791V13.8L71.1791 2H75.5791L70.3391 12.28L75.6591 30H71.0591L67.3391 17.52L65.5791 21.08V30H61.1791V2Z" fill="url(#paint1_linear_104_333)"/>
<rect width="61.7396" height="4.78" transform="matrix(1 0 0.00407883 0.999992 15 31.2002)" fill="#660708"/>
<defs>
<linearGradient id="paint0_linear_104_333" x1="19.5" y1="0" x2="19.5" y2="36" gradientUnits="userSpaceOnUse">
<stop stop-color="#BA181B"/>
<stop offset="0.98" stop-color="#660708"/>
</linearGradient>
<linearGradient id="paint1_linear_104_333" x1="47" y1="0" x2="47" y2="36" gradientUnits="userSpaceOnUse">
<stop stop-color="#BA181B"/>
<stop offset="0.98" stop-color="#660708"/>
</linearGradient>
</defs>
</svg>
