<svg width="26" height="14" viewBox="0 0 26 14" fill="none" xmlns="http://www.w3.org/2000/svg">
<path d="M3.25439 0C4.11762 0.000158592 4.94543 0.295275 5.55574 0.820436L13.0197 7.24111L20.4836 0.820436C21.0975 0.310371 21.9197 0.0281355 22.7732 0.0345154C23.6267 0.0408952 24.4431 0.33538 25.0466 0.854545C25.6501 1.37371 25.9925 2.07602 25.9999 2.8102C26.0073 3.54438 25.6792 4.25169 25.0863 4.7798L15.321 13.1802C14.7106 13.7051 13.8828 14 13.0197 14C12.1565 14 11.3287 13.7051 10.7183 13.1802L0.953049 4.7798C0.497957 4.3882 0.18805 3.88932 0.0625095 3.34623C-0.0630312 2.80314 0.00142726 2.24022 0.24774 1.72864C0.494052 1.21706 0.911161 0.779785 1.44633 0.472095C1.9815 0.164406 2.6107 0.000118233 3.25439 0Z" fill="white" fill-opacity="0.5"/>
</svg>
