<svg width="11" height="21" viewBox="0 0 11 21" fill="none" xmlns="http://www.w3.org/2000/svg">
<path d="M9.97977 4.22877L9.97982 4.22871C10.3069 3.85653 10.4999 3.33937 10.5 2.78863L9.97977 4.22877ZM9.97977 4.22877L4.93495 9.97024L4.64496 10.3003M9.97977 4.22877L4.64496 10.3003M4.64496 10.3003L4.93495 10.6303M4.64496 10.3003L4.93495 10.6303M4.93495 10.6303L9.97674 16.3683M4.93495 10.6303L9.97674 16.3683M9.97674 16.3683C10.2935 16.7432 10.477 17.2562 10.4729 17.7992C10.4687 18.3437 10.2764 18.8537 9.95297 19.2217C9.63131 19.5878 9.21079 19.7809 8.78704 19.7851C8.36461 19.7893 7.94314 19.6057 7.61703 19.2488L1.01981 11.7406C1.0198 11.7405 1.01978 11.7405 1.01976 11.7405C0.692761 11.3682 0.5 10.851 0.5 10.3003C0.5 9.74956 0.692761 9.23234 1.01976 8.86004C1.01978 8.86002 1.0198 8.86 1.01981 8.85998L7.62 1.34836C7.86292 1.07197 8.16416 0.892653 8.48118 0.820908C8.79728 0.749371 9.1258 0.785271 9.42859 0.927998C9.73265 1.07132 10.0031 1.31925 10.1979 1.65091C10.3929 1.98287 10.4999 2.37889 10.5 2.78844L9.97674 16.3683Z" stroke="#424242"/>
</svg>
