<svg width="84" height="84" viewBox="0 0 84 84" fill="none" xmlns="http://www.w3.org/2000/svg">
<path d="M39.1451 80.8479C39.0373 81.5584 38.9562 82.1934 38.902 82.7529C38.8477 83.3124 38.8136 83.6801 38.7995 83.8559C38.4579 83.9789 38.1105 84.0231 37.7571 83.9887C37.4959 83.9633 37.2857 83.8587 37.1267 83.6749C36.9647 83.4909 36.8985 83.2471 36.9279 82.9436C36.9619 82.5924 37.2426 82.2788 37.7699 82.0027C37.5326 81.6371 37.2927 81.2367 37.0502 80.8015L37.5084 80.5262C37.6681 80.8272 37.9588 81.3211 38.3808 82.0081C38.4341 81.5507 38.4892 81.1219 38.5459 80.7219L39.1451 80.8479ZM38.338 82.3104C38.1082 82.3931 37.9087 82.5029 37.7396 82.6396C37.5702 82.7793 37.4794 82.9117 37.4673 83.0367C37.4552 83.1617 37.4829 83.262 37.5505 83.3377C37.6152 83.4131 37.7068 83.4566 37.8256 83.4681C37.9444 83.4797 38.0774 83.4671 38.2249 83.4304C38.2736 82.9275 38.3113 82.5541 38.338 82.3104Z" fill="black"/>
<path d="M36.6816 80.6041C36.6208 81.0727 36.5579 81.5153 36.4931 81.9319C36.4283 82.3485 36.3204 82.8869 36.1693 83.5472C35.6534 83.5452 35.1552 83.5067 34.6748 83.4316L34.7596 82.8865C35.0926 82.9386 35.4037 82.9766 35.6928 83.0006C35.7561 82.6716 35.803 82.4187 35.8335 82.2419C35.6045 82.2393 35.3362 82.2171 35.0288 82.1751L35.0206 81.6745C35.2186 81.7024 35.5182 81.7265 35.9196 81.7469C35.9748 81.3924 36.0131 81.1366 36.0345 80.9796C35.7748 80.9602 35.4614 80.9566 35.0942 80.9688L35.0949 80.4695C35.3633 80.3935 35.6685 80.3822 36.0104 80.4356L36.6816 80.6041Z" fill="black"/>
<path d="M33.4112 80.0674L33.3811 80.6985L34.0385 80.8128L34.3816 80.0243L34.9828 80.2089L33.5176 83.2191L32.7234 82.9745L32.7882 79.878L33.4112 80.0674ZM33.2777 82.5664L33.846 81.2621L33.3523 81.174L33.2777 82.5664Z" fill="black"/>
<path d="M30.784 82.5968C30.4478 82.5027 30.2261 82.2979 30.1188 81.9823C30.0087 81.6659 30.0062 81.3191 30.1112 80.9418C30.1922 80.6509 30.3147 80.3887 30.4788 80.1552C30.6422 79.9246 30.8459 79.7488 31.0902 79.6278C31.3337 79.5096 31.5862 79.4871 31.8477 79.5603C31.8994 79.5747 32.0891 79.6496 32.417 79.7847C32.2043 80.3927 32.0415 80.8997 31.9285 81.3058C31.8154 81.7119 31.7032 82.1648 31.592 82.6645C31.286 82.6844 31.0167 82.6619 30.784 82.5968ZM31.5932 80.0572C31.461 80.0202 31.2978 80.1003 31.1036 80.2974C30.9057 80.4966 30.769 80.7315 30.6936 81.0023C30.6175 81.2759 30.6023 81.5138 30.6482 81.716C30.6913 81.9174 30.7774 82.0362 30.9067 82.0723C30.9757 82.0916 31.0435 82.0982 31.1103 82.092C31.2175 81.6626 31.3115 81.3024 31.3925 81.0115C31.4727 80.7235 31.5651 80.425 31.6698 80.1159C31.6561 80.0872 31.6305 80.0676 31.5932 80.0572Z" fill="black"/>
<path d="M29.4671 79.8044L29.356 80.1313C29.4593 81.0417 29.4721 81.6762 29.3943 82.035L28.8822 81.8032C28.9278 81.465 28.9268 81.0414 28.8793 80.5324C28.4708 80.9646 28.1313 81.3652 27.861 81.734L27.3856 81.5195C27.7975 80.9937 28.2552 80.4724 28.7586 79.9557C28.8508 79.7029 28.9297 79.4803 28.9951 79.2878C29.0605 79.0954 29.1208 78.8996 29.1759 78.7004L29.7147 78.9508C29.6506 79.2227 29.5681 79.5073 29.4671 79.8044Z" fill="black"/>
<path d="M24.0113 79.7974C23.7982 79.6966 23.6668 79.5518 23.6171 79.363C23.5648 79.1729 23.587 78.9751 23.6838 78.7696C23.7487 78.6317 23.9184 78.4674 24.193 78.2765C24.4663 78.0884 24.7813 77.9167 25.1381 77.7615C25.0685 77.755 24.942 77.7084 24.7586 77.6216C24.5725 77.5336 24.4339 77.4565 24.343 77.3903L24.6074 76.955C24.7683 77.0476 24.9054 77.1207 25.0187 77.1743C25.3289 77.3211 25.7048 77.4195 26.1463 77.4697L26.1541 77.9049C25.7442 78.0118 25.3284 78.1838 24.9068 78.4208C24.4852 78.6578 24.2394 78.8506 24.1693 78.9993C24.098 79.1508 24.1217 79.2546 24.2404 79.3107C24.3376 79.3567 24.4655 79.3477 24.6241 79.2839C24.7788 79.2215 24.9626 79.1184 25.1756 78.9744L25.4465 79.4498C24.8323 79.8436 24.3539 79.9595 24.0113 79.7974Z" fill="black"/>
<path d="M21.8998 75.3499C21.6492 75.8167 21.4217 76.217 21.2174 76.5509C21.0116 76.8874 20.7895 77.2332 20.5512 77.5883L21.0564 77.8094L20.8689 78.3045C20.5932 78.1946 20.327 78.0748 20.0705 77.9451L19.3338 77.5449L19.521 77.076C19.6655 77.1543 19.8302 77.2397 20.015 77.3323C20.2548 76.9746 20.4683 76.6429 20.6555 76.337C20.8426 76.0312 21.1058 75.5896 21.4449 75.0124L21.8998 75.3499Z" fill="black"/>
<path d="M19.5918 73.9017L19.3234 74.4735L19.8875 74.8308L20.505 74.2334L20.9902 74.6342L18.4892 76.8552L17.8484 76.3251L19.0881 73.4882L19.5918 73.9017ZM18.5162 76.1602L19.5383 75.1724L19.1156 74.9019L18.5162 76.1602Z" fill="black"/>
<path d="M18.6556 73.1966C18.3107 73.7079 17.9824 74.1659 17.6706 74.5706C17.357 74.9776 17.0596 75.3368 16.7784 75.648L16.3402 75.2408C16.6892 74.8612 17.0068 74.4856 17.2931 74.114C17.5793 73.7425 17.784 73.4646 17.9071 73.2803C17.813 73.2263 17.5858 73.0883 17.2256 72.8661L17.472 72.3995C17.6655 72.5152 17.9431 72.6735 18.3048 72.8741L18.6556 73.1966Z" fill="black"/>
<path d="M17.2927 72.1287C17.0106 72.4889 16.6825 72.8864 16.3086 73.3213C15.9347 73.7561 15.604 74.1178 15.3165 74.4063L14.8902 73.961C15.1543 73.6996 15.4645 73.3617 15.8209 72.9473C15.1331 73.1701 14.5805 73.3776 14.1633 73.5698L13.8823 73.0309C14.3254 72.8454 14.871 72.6575 15.5189 72.4673C15.6026 71.9119 15.6183 71.4518 15.5659 71.0868L16.1815 71.0028C16.2236 71.4852 16.1735 72.0518 16.0313 72.7027C16.3877 72.2882 16.668 71.9462 16.8722 71.6766L17.2927 72.1287Z" fill="black"/>
<path d="M12.8215 72.2816C12.6561 72.1218 12.5779 71.9425 12.587 71.7435C12.5939 71.5468 12.675 71.3676 12.8302 71.2062C12.9027 71.1308 12.9777 71.0808 13.0553 71.0561C13.1329 71.0314 13.1927 71.0144 13.2348 71.0052C13.2746 70.9939 13.3346 70.9854 13.4147 70.9797C13.4926 70.9719 13.5505 70.9677 13.5885 70.967C13.7422 70.9535 13.8782 70.9457 13.9963 70.9436C14.1923 70.9336 14.3296 70.8877 14.4083 70.8059C14.4373 70.7758 14.464 70.7372 14.4884 70.6902L14.7312 70.9871C14.7544 71.1009 14.735 71.19 14.6728 71.2546C14.6087 71.3214 14.523 71.3674 14.4159 71.3926C14.3067 71.42 14.1942 71.4379 14.0783 71.4464C13.9603 71.457 13.8592 71.4652 13.775 71.471C13.6865 71.4769 13.6212 71.4823 13.5791 71.4873C13.5348 71.4903 13.4832 71.4965 13.4243 71.5061C13.3129 71.5271 13.2365 71.5592 13.1951 71.6023C13.1516 71.6475 13.1293 71.6965 13.1282 71.7494C13.127 71.8023 13.149 71.8505 13.1941 71.8941C13.2951 71.9916 13.5565 72.0386 13.9783 72.0351L14.0263 72.5798C13.4572 72.6072 13.0556 72.5078 12.8215 72.2816ZM14.6274 70.5005C14.6451 70.4346 14.7058 70.3479 14.8093 70.2402C14.9128 70.1326 15.02 70.0555 15.131 70.0091L15.4429 70.4538C15.3449 70.5127 15.2544 70.5852 15.1716 70.6713C15.0867 70.7596 15.0175 70.8359 14.9638 70.9003L14.6274 70.5005Z" fill="black"/>
<path d="M8.59315 65.8681C8.63807 65.7724 8.73771 65.6683 8.89205 65.5557C9.04399 65.4448 9.24242 65.337 9.48735 65.2323L10.0091 66.1108C9.75107 66.2585 9.55572 66.3807 9.42307 66.4774C9.28802 66.576 9.18158 66.6555 9.10375 66.716L8.59315 65.8681Z" fill="black"/>
<path d="M7.46236 59.7562C6.80047 60.0324 6.21688 60.2924 5.71157 60.5363C5.20626 60.7801 4.87497 60.9416 4.71768 61.0208C4.4356 60.7919 4.21757 60.5171 4.06361 60.1965C3.94975 59.9594 3.92991 59.7251 4.0041 59.4935C4.07698 59.2592 4.25051 59.0759 4.52466 58.9437C4.84182 58.7906 5.25492 58.8684 5.76396 59.177C5.95263 58.7839 6.16962 58.3706 6.41494 57.937L6.8875 58.1868C6.71367 58.4798 6.44326 58.9852 6.07628 59.7032C6.49408 59.5116 6.88829 59.3363 7.2589 59.1774L7.46236 59.7562ZM5.7963 59.8234C5.60648 59.6694 5.4094 59.5554 5.20504 59.4815C4.998 59.4088 4.83803 59.3997 4.72514 59.4542C4.61226 59.5087 4.54108 59.5845 4.5116 59.6817C4.48083 59.7762 4.49133 59.8773 4.54308 59.9851C4.59483 60.0928 4.67461 60.2004 4.7824 60.3076C5.23664 60.0885 5.5746 59.927 5.7963 59.8234Z" fill="black"/>
<path d="M6.39206 57.5187C5.96083 57.7098 5.55077 57.8856 5.16188 58.0462C4.77299 58.2068 4.25779 58.3937 3.61628 58.6069C3.35026 58.1637 3.12464 57.7168 2.93942 57.2662L3.44829 57.0561C3.57669 57.3685 3.70566 57.6548 3.83519 57.915C4.14864 57.7984 4.38868 57.7074 4.5553 57.6418C4.4386 57.4442 4.3184 57.2028 4.19471 56.9176L4.61741 56.6508C4.6963 56.8349 4.83118 57.1042 5.02206 57.4588C5.35303 57.3221 5.59104 57.2222 5.73608 57.159C5.61791 56.9265 5.45836 56.656 5.25743 56.3477L5.68354 56.0893C5.88769 56.2799 6.05568 56.5355 6.18749 56.8562L6.39206 57.5187Z" fill="black"/>
<path d="M5.15296 54.4379L4.59901 54.7396L4.84271 55.3622L5.69321 55.2471L5.84762 55.858L2.52022 56.1643L2.31677 55.3568L4.99122 53.8058L5.15296 54.4379ZM2.95243 55.6202L4.35957 55.4303L4.17854 54.9616L2.95243 55.6202Z" fill="black"/>
<path d="M1.6326 53.499C1.53837 53.1622 1.59801 52.8659 1.81152 52.6103C2.02422 52.3517 2.3187 52.1696 2.69496 52.0639C2.98505 51.9823 3.27223 51.9513 3.5565 51.9708C3.8379 51.9911 4.09359 52.0745 4.32355 52.221C4.55065 52.3683 4.70084 52.573 4.77413 52.835C4.78863 52.8868 4.82329 53.0882 4.87811 53.4393C4.24931 53.5725 3.73242 53.6961 3.32743 53.8099C2.92245 53.9237 2.47801 54.0626 1.99411 54.2266C1.81833 53.9747 1.69783 53.7322 1.6326 53.499ZM4.21832 52.8748C4.18127 52.7423 4.0283 52.644 3.75941 52.5798C3.48684 52.5136 3.21556 52.5184 2.94558 52.5943C2.67272 52.671 2.46197 52.7815 2.31334 52.9257C2.16391 53.0671 2.10731 53.2026 2.14355 53.3321C2.16288 53.4012 2.19249 53.4628 2.23238 53.5168C2.65425 53.3858 3.01023 53.2795 3.30032 53.198C3.58754 53.1172 3.89011 53.0415 4.20801 52.9708C4.22535 52.9442 4.22879 52.9122 4.21832 52.8748Z" fill="black"/>
<path d="M3.33073 50.9218L2.99428 50.9962C2.27156 51.5571 1.73701 51.8973 1.39063 52.0167L1.32258 51.4577C1.6347 51.3213 1.99548 51.1007 2.40492 50.7958C1.82434 50.67 1.30663 50.587 0.851778 50.5467L0.788038 50.028C1.45022 50.1082 2.13224 50.2299 2.83409 50.3932C3.09754 50.341 3.32831 50.2931 3.52639 50.2493C3.72447 50.2055 3.92272 50.1555 4.12115 50.0994L4.1872 50.6911C3.92208 50.7772 3.63659 50.8541 3.33073 50.9218Z" fill="black"/>
<path d="M0.505898 46.2431C0.481301 46.0082 0.53663 45.8205 0.671887 45.68C0.806833 45.5365 0.98704 45.4529 1.21251 45.4292C1.36381 45.4133 1.59206 45.4734 1.89727 45.6097C2.19951 45.7462 2.50938 45.9271 2.8269 46.1523C2.79631 46.0893 2.77044 45.9568 2.74926 45.7546C2.72778 45.5494 2.72166 45.3907 2.73091 45.2785L3.23936 45.2791C3.24384 45.465 3.25261 45.6204 3.26569 45.7453C3.30149 46.0873 3.41255 46.4605 3.59885 46.8648L3.23178 47.0973C2.92788 46.8016 2.56549 46.5345 2.14461 46.2962C1.72374 46.0579 1.43172 45.9473 1.26855 45.9644C1.10242 45.9819 1.0262 46.0561 1.0399 46.1869C1.05111 46.294 1.12509 46.3989 1.26183 46.5018C1.3953 46.602 1.57865 46.706 1.81189 46.8137L1.54709 47.2926C0.892505 46.9706 0.545442 46.6208 0.505898 46.2431Z" fill="black"/>
<path d="M3.20334 42.1262C2.67522 42.1536 2.21578 42.1664 1.82501 42.1646C1.43126 42.1628 1.02114 42.1519 0.594665 42.132L0.668204 42.6795L0.148714 42.7758C0.0993569 42.4825 0.0634092 42.1923 0.0408711 41.9052L0 41.0663L0.497055 40.9834C0.505245 41.1478 0.517812 41.3333 0.534757 41.5397C0.96422 41.5596 1.35793 41.5704 1.71588 41.5721C2.07384 41.5737 2.58693 41.5701 3.25517 41.5613L3.20334 42.1262Z" fill="black"/>
<path d="M3.24086 39.397L2.61397 39.4637L2.60197 40.1324L3.43185 40.3517L3.3418 40.9754L0.149906 39.9847L0.269549 39.1605L3.33222 38.7509L3.24086 39.397ZM0.756682 39.6472L2.12948 40.0105L2.14078 39.508L0.756682 39.6472Z" fill="black"/>
<path d="M3.35644 38.229C2.74146 38.1987 2.18052 38.155 1.67363 38.0979C1.16377 38.0404 0.703181 37.9719 0.291851 37.8924L0.41175 37.3056C0.916603 37.4077 1.40173 37.485 1.86712 37.5375C2.33251 37.59 2.67572 37.6211 2.89674 37.631C2.89393 37.5224 2.8938 37.2561 2.89637 36.8321L3.42216 36.8011C3.42382 37.027 3.43293 37.347 3.44949 37.7611L3.35644 38.229Z" fill="black"/>
<path d="M3.56009 36.5071C3.10651 36.4522 2.59728 36.3773 2.03241 36.2826C1.46753 36.1878 0.987502 36.0921 0.592309 35.9954L0.750894 35.399C1.11078 35.4897 1.55992 35.5803 2.09832 35.6706C1.55137 35.1968 1.08772 34.831 0.707353 34.5732L1.02109 34.0528C1.40929 34.3362 1.85259 34.7062 2.35099 35.1628C2.86803 34.9463 3.26861 34.721 3.55272 34.4867L3.94371 34.9707C3.55412 35.257 3.04491 35.5081 2.41606 35.7239C2.95445 35.8143 3.3916 35.877 3.7275 35.9122L3.56009 36.5071Z" fill="black"/>
<path d="M1.10974 32.7551C1.16019 32.5304 1.27259 32.3704 1.44693 32.2749C1.61836 32.1787 1.8132 32.1553 2.03146 32.2045C2.13331 32.2275 2.2149 32.2658 2.27623 32.3195C2.33755 32.3732 2.38305 32.4157 2.41273 32.4469C2.44307 32.4752 2.48144 32.5222 2.52785 32.5878C2.57491 32.6505 2.60859 32.698 2.62888 32.7301C2.7201 32.8549 2.79727 32.9674 2.86041 33.0674C2.97061 33.2302 3.081 33.3241 3.19159 33.3491C3.23233 33.3583 3.27907 33.3611 3.33182 33.3577L3.20462 33.7198C3.11963 33.7987 3.03349 33.8283 2.94618 33.8086C2.85597 33.7882 2.77231 33.7387 2.6952 33.66C2.61518 33.5806 2.54149 33.4935 2.47413 33.3986C2.40387 33.3031 2.3444 33.2207 2.29574 33.1515C2.24482 33.0787 2.20631 33.0255 2.18019 32.9921C2.15473 32.9557 2.12266 32.9147 2.08396 32.8692C2.00816 32.7847 1.94116 32.7358 1.88295 32.7227C1.82184 32.7089 1.76844 32.7152 1.72274 32.7417C1.67705 32.7682 1.64732 32.812 1.63356 32.8733C1.60276 33.0104 1.69833 33.2588 1.92025 33.6184L1.48061 33.9421C1.16194 33.4687 1.03831 33.073 1.10974 32.7551ZM3.56569 33.3783C3.6311 33.3594 3.73656 33.3663 3.88207 33.3992C4.02757 33.432 4.14892 33.4839 4.24611 33.5549L4.02875 34.0529C3.92763 33.9994 3.81886 33.9596 3.70246 33.9333C3.58314 33.9064 3.48209 33.8866 3.39929 33.8741L3.56569 33.3783Z" fill="black"/>
<path d="M4.3855 25.8041C4.49038 25.793 4.63089 25.8243 4.80702 25.8981C4.9804 25.9708 5.1753 26.0849 5.39171 26.2404L4.91317 27.1434C4.65338 26.9989 4.4478 26.8949 4.29643 26.8314C4.14232 26.7668 4.01928 26.7169 3.92731 26.6816L4.3855 25.8041Z" fill="black"/>
<path d="M9.01121 21.6639C8.43221 21.2401 7.90765 20.8749 7.43753 20.5684C6.96741 20.2619 6.65778 20.0618 6.50861 19.9682C6.55748 19.6077 6.67869 19.2783 6.87223 18.98C7.01535 18.7594 7.20491 18.6208 7.4409 18.5643C7.67851 18.5052 7.92485 18.5587 8.17992 18.725C8.47499 18.9174 8.62301 19.3117 8.62397 19.908C9.05704 19.8658 9.52212 19.8373 10.0192 19.8225L10.0513 20.357C9.71131 20.3601 9.13993 20.3906 8.3372 20.4487C8.71741 20.7073 9.07143 20.9541 9.39926 21.1893L9.01121 21.6639ZM8.08945 20.2711C8.12228 20.0286 8.11722 19.8006 8.07426 19.5871C8.0288 19.372 7.95356 19.2302 7.84853 19.1617C7.74351 19.0933 7.64191 19.0716 7.54373 19.0968C7.44718 19.1194 7.36638 19.1809 7.30133 19.2812C7.23627 19.3814 7.18597 19.5056 7.15041 19.6536C7.57301 19.9291 7.88603 20.135 8.08945 20.2711Z" fill="black"/>
<path d="M10.364 19.5859C9.97739 19.3155 9.61469 19.0553 9.27594 18.8054C8.9372 18.5555 8.5105 18.211 7.99584 17.7719C8.23573 17.314 8.49979 16.8888 8.788 16.4963L9.23125 16.8233C9.03145 17.0954 8.8542 17.3545 8.6995 17.6005C8.9615 17.8086 9.16369 17.9671 9.30607 18.0758C9.41402 17.8733 9.55754 17.645 9.73663 17.3911L10.1834 17.6149C10.0674 17.778 9.90768 18.0333 9.70437 18.3808C9.99267 18.5935 10.2014 18.7456 10.3305 18.8371C10.4675 18.6152 10.6153 18.3382 10.774 18.006L11.2155 18.2371C11.1589 18.5109 11.0281 18.7875 10.823 19.0668L10.364 19.5859Z" fill="black"/>
<path d="M12.3486 16.9256L11.8039 16.6074L11.3994 17.1393L11.9388 17.8083L11.4979 18.2576L9.51021 15.5654L10.0933 14.9721L12.8037 16.459L12.3486 16.9256ZM10.1985 15.6534L11.0905 16.7607L11.3964 16.3623L10.1985 15.6534Z" fill="black"/>
<path d="M11.3227 13.4219C11.5611 13.1663 11.8447 13.0637 12.1735 13.114C12.5043 13.1622 12.8125 13.32 13.0979 13.5875C13.3179 13.7938 13.4934 14.0238 13.6243 14.2775C13.753 14.5291 13.8145 14.7915 13.8089 15.0646C13.8011 15.3356 13.7044 15.5705 13.519 15.7693C13.4824 15.8086 13.3286 15.9428 13.0576 16.1719C12.6177 15.7022 12.2442 15.3234 11.937 15.0354C11.6298 14.7475 11.2807 14.4387 10.8898 14.1091C11.0134 13.8278 11.1577 13.5988 11.3227 13.4219ZM13.1967 15.3136C13.2905 15.2132 13.2949 15.0311 13.2101 14.7674C13.1252 14.4995 12.9803 14.2695 12.7755 14.0775C12.5685 13.8835 12.365 13.7602 12.1648 13.7077C11.9667 13.653 11.8219 13.6748 11.7302 13.7731C11.6813 13.8255 11.6441 13.8828 11.6188 13.945C11.9494 14.2385 12.2247 14.4884 12.4448 14.6947C12.6626 14.8989 12.8842 15.1189 13.1095 15.3546C13.1412 15.3557 13.1702 15.342 13.1967 15.3136Z" fill="black"/>
<path d="M14.4018 13.5397L14.1637 13.29C13.3104 12.9618 12.7429 12.6802 12.4613 12.4454L12.9028 12.097C13.1811 12.2937 13.5564 12.4884 14.0288 12.6811C13.8349 12.1183 13.6371 11.6316 13.4354 11.2209L13.8447 10.8972C14.1199 11.5062 14.37 12.1538 14.5949 12.8399C14.776 13.0386 14.9367 13.2115 15.0768 13.3585C15.2169 13.5055 15.3624 13.6494 15.5132 13.7903L15.0429 14.1539C14.8319 13.9715 14.6181 13.7667 14.4018 13.5397Z" fill="black"/>
<path d="M16.9262 8.6916C17.1138 8.54863 17.3026 8.49865 17.4926 8.54165C17.685 8.58284 17.8498 8.69388 17.987 8.87477C18.0791 8.99616 18.1462 9.22297 18.1883 9.55519C18.2287 9.88504 18.2352 10.2444 18.208 10.6333C18.2457 10.5745 18.3454 10.4835 18.5068 10.3604C18.6707 10.2356 18.8029 10.148 18.9034 10.0977L19.1666 10.5337C19.0104 10.634 18.8824 10.7221 18.7827 10.7982C18.5096 11.0063 18.249 11.2951 18.0008 11.6645L17.6121 11.4706C17.7066 11.0567 17.7463 10.6077 17.7312 10.1233C17.7161 9.63905 17.6589 9.33144 17.5596 9.20053C17.4585 9.06724 17.3557 9.04041 17.2512 9.12004C17.1657 9.18519 17.1146 9.30304 17.0978 9.47359C17.0816 9.63995 17.088 9.85101 17.1172 10.1068L16.5714 10.1283C16.5064 9.40034 16.6246 8.92144 16.9262 8.6916Z" fill="black"/>
<path d="M21.8369 8.86692C21.5394 8.42862 21.2901 8.04158 21.0889 7.70579C20.8862 7.36744 20.6826 7.01038 20.4783 6.63459L20.0495 6.9817L19.6979 6.5865C19.9224 6.39205 20.1513 6.21067 20.3845 6.04236L21.0787 5.57206L21.4073 5.95496C21.2713 6.04733 21.1196 6.15432 20.9524 6.27593C21.1582 6.65427 21.3533 6.99724 21.5376 7.30483C21.7219 7.61242 21.9912 8.05022 22.3455 8.61823L21.8369 8.86692Z" fill="black"/>
<path d="M24.1838 7.48302L23.8017 6.98045L23.2252 7.31714L23.4688 8.142L22.8901 8.38845L22.0789 5.13931L22.8439 4.81421L24.7823 7.22607L24.1838 7.48302ZM22.6815 5.48417L23.084 6.84899L23.5184 6.59793L22.6815 5.48417Z" fill="black"/>
<path d="M25.2399 6.97602C24.9466 6.43335 24.6929 5.93002 24.4786 5.466C24.2631 4.99927 24.0826 4.56905 23.9369 4.17534L24.4996 3.97364C24.6744 4.4592 24.8602 4.915 25.057 5.34103C25.2537 5.76705 25.4051 6.07733 25.5114 6.27185C25.6026 6.21307 25.8296 6.07479 26.1925 5.857L26.4918 6.29148C26.3 6.4101 26.0318 6.58392 25.6873 6.81297L25.2399 6.97602Z" fill="black"/>
<path d="M26.8141 6.25709C26.6256 5.83994 26.4252 5.36476 26.2129 4.83154C26.0007 4.29832 25.8333 3.83732 25.7106 3.44855L26.3015 3.27499C26.4109 3.63044 26.5667 4.06228 26.769 4.5705C26.8893 3.85601 26.9607 3.2689 26.9833 2.80918L27.5898 2.80804C27.5495 3.28773 27.464 3.85956 27.3332 4.52351C27.7861 4.85428 28.1861 5.08061 28.5333 5.20251L28.3234 5.78866C27.8771 5.60338 27.3988 5.2973 26.8884 4.87043C27.0907 5.37866 27.264 5.7858 27.4083 6.09186L26.8141 6.25709Z" fill="black"/>
<path d="M28.7426 2.21064C28.9603 2.13734 29.1551 2.1506 29.327 2.25043C29.498 2.34743 29.6191 2.50222 29.6903 2.71481C29.7236 2.81401 29.7332 2.90382 29.7193 2.98422C29.7053 3.06463 29.6927 3.12564 29.6815 3.16727C29.6731 3.20795 29.6529 3.2652 29.621 3.33903C29.5919 3.4119 29.569 3.46538 29.552 3.49946C29.4929 3.64237 29.4371 3.76684 29.3845 3.87286C29.3029 4.05176 29.2801 4.19506 29.3162 4.30277C29.3295 4.34245 29.3513 4.384 29.3815 4.42743L29.0068 4.5063C28.8954 4.47441 28.8254 4.41594 28.7969 4.33091C28.7675 4.24304 28.7663 4.14565 28.7935 4.03874C28.8196 3.929 28.8557 3.82065 28.9017 3.7137C28.9467 3.60391 28.9861 3.51021 29.0199 3.4326C29.0555 3.3512 29.0809 3.29063 29.0959 3.25088C29.1137 3.21018 29.132 3.16144 29.1507 3.10467C29.1835 2.99585 29.1904 2.9131 29.1714 2.85641C29.1514 2.79689 29.1183 2.75442 29.072 2.72899C29.0258 2.70357 28.9729 2.70085 28.9135 2.72085C28.7806 2.76559 28.6184 2.97635 28.4268 3.35312L27.9226 3.14436C28.161 2.62566 28.4344 2.31442 28.7426 2.21064ZM29.4853 4.63852C29.5354 4.68474 29.5842 4.77871 29.6317 4.92043C29.6792 5.06215 29.6979 5.19307 29.6878 5.31318L29.1503 5.38533C29.1434 5.27093 29.121 5.15705 29.083 5.04367C29.044 4.92745 29.0084 4.83062 28.9762 4.75316L29.4853 4.63852Z" fill="black"/>
<path d="M36.3703 1.41105C36.4342 1.49514 36.4803 1.6318 36.5088 1.82104C36.5367 2.00731 36.5406 2.23352 36.5202 2.49966L35.5018 2.55812C35.4903 2.26051 35.4723 2.03039 35.4479 1.86777C35.423 1.70219 35.4018 1.57084 35.3842 1.47371L36.3703 1.41105Z" fill="black"/>
<path d="M42.3012 3.22662C42.3623 2.51056 42.4015 1.8716 42.419 1.30974C42.4364 0.74788 42.4464 0.378738 42.4489 0.202316C42.7817 0.0571469 43.1255 -0.00989919 43.4803 0.00117798C43.7427 0.00936951 43.9592 0.0998928 44.1299 0.272748C44.3036 0.445696 44.3858 0.68459 44.3763 0.98943C44.3653 1.34209 44.1058 1.67352 43.5978 1.98374C43.8585 2.33291 44.1241 2.71664 44.3947 3.13493L43.9554 3.43981C43.7764 3.15003 43.4539 2.67627 42.9879 2.01854C42.9646 2.47851 42.9378 2.90995 42.9074 3.31286L42.3012 3.22662ZM43.0108 1.71412C43.2346 1.61641 43.4265 1.49376 43.5863 1.34618C43.7461 1.19562 43.828 1.05757 43.8319 0.932049C43.8358 0.806527 43.8016 0.708233 43.7292 0.637167C43.6597 0.566195 43.5654 0.528847 43.4461 0.525123C43.3269 0.5214 43.1949 0.542708 43.0502 0.589046C43.0345 1.09412 43.0214 1.46915 43.0108 1.71412Z" fill="black"/>
<path d="M44.7754 3.30764C44.8054 2.83601 44.8391 2.39024 44.8764 1.9703C44.9138 1.55037 44.9862 1.00598 45.0936 0.33715C45.6086 0.305142 46.1082 0.310789 46.5925 0.35409L46.5436 0.903577C46.2079 0.873559 45.895 0.856089 45.6049 0.851169C45.5634 1.18367 45.5331 1.43914 45.5143 1.61756C45.743 1.60499 46.0121 1.60954 46.3216 1.63121L46.3626 2.1302C46.1633 2.11538 45.8627 2.11102 45.4608 2.11711C45.429 2.4745 45.4076 2.73226 45.3965 2.89037C45.6569 2.89263 45.9698 2.87559 46.3354 2.83923L46.3675 3.33742C46.1046 3.43099 45.8008 3.46237 45.4562 3.43155L44.7754 3.30764Z" fill="black"/>
<path d="M48.0738 3.62784L48.0626 2.99603L47.3991 2.92535L47.1084 3.73475L46.4965 3.59008L47.7612 0.489919L48.5697 0.681727L48.7079 3.77578L48.0738 3.62784ZM48.0433 1.12541L47.5618 2.46427L48.0602 2.51966L48.0433 1.12541Z" fill="black"/>
<path d="M50.5297 0.930859C50.8713 1.00255 51.1059 1.19232 51.2336 1.50018C51.3642 1.80864 51.3895 2.15457 51.3094 2.53795C51.2477 2.83354 51.1426 3.10323 50.9941 3.34702C50.8463 3.58788 50.6545 3.77674 50.4187 3.91359C50.1834 4.04752 49.933 4.08661 49.6673 4.03085C49.6147 4.01982 49.4205 3.95766 49.0845 3.84439C49.2568 3.22374 49.3861 2.70709 49.4723 2.29444C49.5585 1.88179 49.6407 1.42248 49.7189 0.916512C50.0229 0.876444 50.2932 0.881226 50.5297 0.930859ZM49.8886 3.51825C50.023 3.54644 50.1806 3.45579 50.3615 3.24631C50.5459 3.03451 50.6668 2.79107 50.7243 2.51596C50.7824 2.23793 50.7819 1.99955 50.7228 1.8008C50.6667 1.60267 50.5729 1.48982 50.4415 1.46225C50.3715 1.44754 50.3033 1.44546 50.2371 1.456C50.1583 1.89159 50.0881 2.25718 50.0263 2.55277C49.9652 2.84543 49.8925 3.14943 49.8084 3.46475C49.8239 3.49245 49.8507 3.51029 49.8886 3.51825Z" fill="black"/>
<path d="M52.0267 3.63044L52.1162 3.29693C51.9534 2.39538 51.899 1.76303 51.9532 1.39988L52.4794 1.59743C52.456 1.93791 52.4847 2.36055 52.5655 2.86535C52.9448 2.40715 53.2573 1.98511 53.5029 1.59925L53.9913 1.78198C53.6147 2.3338 53.1922 2.88407 52.7238 3.43281C52.6483 3.69114 52.5842 3.91847 52.5316 4.11483C52.4789 4.31118 52.4316 4.51053 52.3897 4.71287L51.8356 4.49851C51.8817 4.22298 51.9454 3.93363 52.0267 3.63044Z" fill="black"/>
<path d="M57.4712 3.27811C57.6905 3.36468 57.8311 3.50052 57.893 3.68564C57.9577 3.87186 57.9485 4.07069 57.8654 4.28213C57.8096 4.42402 57.651 4.59921 57.3896 4.80771C57.1292 5.01343 56.8261 5.20549 56.4803 5.3839C56.5501 5.38575 56.6794 5.42393 56.8681 5.49844C57.0596 5.57405 57.2029 5.64186 57.2979 5.70187L57.0627 6.15371C56.8961 6.07187 56.7545 6.00793 56.6379 5.96191C56.3187 5.83591 55.9372 5.76242 55.4934 5.74146L55.457 5.30773C55.859 5.174 56.2626 4.97501 56.6678 4.71077C57.073 4.44654 57.3057 4.23791 57.3658 4.0849C57.427 3.9291 57.3966 3.8271 57.2744 3.77889C57.1745 3.73944 57.0475 3.75678 56.8933 3.83089C56.743 3.90332 56.5664 4.01836 56.3634 4.17602L56.0618 3.71955C56.6489 3.2861 57.1187 3.13896 57.4712 3.27811Z" fill="black"/>
<path d="M59.8696 7.57698C60.0891 7.0947 60.2898 6.68024 60.4718 6.3336C60.6552 5.98432 60.8541 5.62466 61.0686 5.25462L60.55 5.06729L60.7046 4.56092C60.987 4.65239 61.2604 4.75438 61.5249 4.86688L62.2862 5.21776L62.1302 5.69801C61.9808 5.62937 61.8109 5.55495 61.6204 5.47475C61.4045 5.84743 61.2133 6.19254 61.0466 6.51007C60.8799 6.8276 60.6462 7.28551 60.3456 7.8838L59.8696 7.57698Z" fill="black"/>
<path d="M62.2676 8.87003L62.4979 8.28181L61.9117 7.96248L61.3346 8.59923L60.8242 8.23126L63.1742 5.85028L63.8484 6.33708L62.7972 9.24949L62.2676 8.87003ZM63.1928 6.54559L62.2377 7.59863L62.6772 7.84062L63.1928 6.54559Z" fill="black"/>
<path d="M63.248 9.51194C63.5586 8.97905 63.8562 8.50044 64.1407 8.07609C64.427 7.64927 64.7002 7.27132 64.9604 6.94225L65.4243 7.3197C65.101 7.7215 64.8087 8.11721 64.5474 8.50681C64.2861 8.89641 64.1001 9.1872 63.9893 9.37918C64.0868 9.42682 64.3225 9.54963 64.6966 9.74761L64.4813 10.2294C64.2806 10.1267 63.9932 9.98707 63.6191 9.81066L63.248 9.51194Z" fill="black"/>
<path d="M64.6779 10.4878C64.9358 10.1098 65.2371 9.69156 65.5817 9.23302C65.9263 8.77448 66.2326 8.39181 66.5005 8.085L66.9551 8.5013C66.7087 8.77945 66.4213 9.13704 66.0929 9.57409C66.7646 9.30642 67.3024 9.06298 67.7061 8.84378L68.0218 9.36294C67.5918 9.5773 67.0598 9.80071 66.4257 10.0332C66.3785 10.5928 66.3931 11.053 66.4693 11.4138L65.8605 11.5381C65.7869 11.0595 65.7998 10.4908 65.899 9.83202C65.5705 10.2691 65.3132 10.6288 65.1271 10.9113L64.6779 10.4878Z" fill="black"/>
<path d="M69.1294 10.0408C69.3049 10.1893 69.3947 10.3631 69.3987 10.5622C69.4047 10.7591 69.3355 10.9431 69.1912 11.1145C69.1238 11.1944 69.0523 11.2493 68.9764 11.279C68.9006 11.3088 68.842 11.3297 68.8007 11.3416C68.7617 11.3556 68.7024 11.368 68.6229 11.379C68.5456 11.3919 68.4881 11.3999 68.4503 11.4031C68.2977 11.4266 68.1626 11.4433 68.0449 11.4533C67.85 11.4761 67.7159 11.531 67.6428 11.6178C67.6158 11.6498 67.5917 11.69 67.5704 11.7385L67.3087 11.4583C67.2781 11.3463 67.2916 11.256 67.3494 11.1875C67.409 11.1167 67.4915 11.0651 67.5967 11.0329C67.7039 10.9984 67.815 10.973 67.9301 10.957C68.0471 10.9386 68.1474 10.9237 68.2312 10.9124C68.3191 10.9007 68.3839 10.891 68.4256 10.8832C68.4695 10.8774 68.5206 10.8678 68.5787 10.8544C68.6885 10.826 68.7627 10.7889 68.8012 10.7433C68.8416 10.6953 68.8606 10.6449 68.8583 10.592C68.8559 10.5392 68.8309 10.4925 68.783 10.452C68.6759 10.3613 68.412 10.3316 67.9912 10.363L67.9077 9.82262C68.4737 9.75778 68.881 9.83049 69.1294 10.0408ZM67.4442 11.9369C67.4308 12.0039 67.376 12.0944 67.2797 12.2086C67.1835 12.3229 67.0816 12.4068 66.9739 12.4605L66.6335 12.0373C66.7275 11.9721 66.813 11.8938 66.8899 11.8024C66.9688 11.7087 67.033 11.628 67.0823 11.5602L67.4442 11.9369Z" fill="black"/>
<path d="M75.2001 18.0311C75.156 18.1271 75.0572 18.2321 74.9038 18.346C74.7528 18.4581 74.5553 18.5676 74.3112 18.6744L73.7821 17.8002C74.0389 17.6505 74.2333 17.5266 74.3651 17.4287C74.4993 17.3291 74.6051 17.2486 74.6824 17.1875L75.2001 18.0311Z" fill="black"/>
<path d="M76.3819 24.1333C77.0414 23.8515 77.6228 23.5866 78.1261 23.3386C78.6293 23.0905 78.9593 22.9262 79.1159 22.8457C79.3999 23.0723 79.6202 23.3452 79.7768 23.6645C79.8927 23.9006 79.9145 24.1348 79.8422 24.367C79.7713 24.6019 79.5993 24.7866 79.3262 24.9212C79.0104 25.0769 78.5966 25.0025 78.0851 24.6983C77.8997 25.0928 77.6861 25.508 77.4445 25.9436L76.9698 25.6978C77.1412 25.4034 77.4074 24.8957 77.7684 24.1746C77.3522 24.3698 76.9594 24.5483 76.5902 24.7104L76.3819 24.1333ZM78.0473 24.0521C78.2384 24.2045 78.4364 24.3168 78.6414 24.3891C78.8491 24.46 79.0091 24.4677 79.1215 24.4123C79.2339 24.3569 79.3045 24.2805 79.3332 24.1831C79.3631 24.0883 79.3518 23.9873 79.2991 23.8799C79.2465 23.7726 79.1658 23.6658 79.0571 23.5594C78.6047 23.7824 78.2681 23.9466 78.0473 24.0521Z" fill="black"/>
<path d="M77.4708 26.3617C77.9004 26.1671 78.309 25.9878 78.6965 25.824C79.0841 25.6601 79.5977 25.4689 80.2374 25.2503C80.5071 25.6912 80.7365 26.1362 80.9254 26.5853L80.4183 26.7997C80.2873 26.4884 80.156 26.2032 80.0243 25.944C79.7118 26.0632 79.4725 26.1562 79.3065 26.2232C79.4248 26.4198 79.547 26.6602 79.6731 26.9444L79.2526 27.2147C79.1722 27.0312 79.0351 26.7631 78.8413 26.4102C78.5115 26.5496 78.2743 26.6515 78.1298 26.7159C78.2499 26.9474 78.4117 27.2165 78.6152 27.5231L78.1912 27.7852C77.9855 27.5963 77.8154 27.3421 77.6809 27.0225L77.4708 26.3617Z" fill="black"/>
<path d="M78.7356 29.432L79.287 29.1257L79.0381 28.5052L78.1886 28.6274L78.0291 28.0178L81.3538 27.6836L81.564 28.4893L78.9026 30.0627L78.7356 29.432ZM80.9262 28.2313L79.5207 28.433L79.7056 28.9002L80.9262 28.2313Z" fill="black"/>
<path d="M82.2637 30.3413C82.3607 30.6774 82.3035 30.9741 82.0922 31.2316C81.8816 31.4919 81.5887 31.6765 81.2133 31.7854C80.9239 31.8693 80.637 31.9028 80.3526 31.8857C80.071 31.8678 79.8147 31.7865 79.5835 31.6419C79.3552 31.4965 79.2033 31.2931 79.1278 31.0317C79.1129 30.98 79.0765 30.7789 79.0188 30.4283C79.6464 30.2898 80.1623 30.1619 80.5663 30.0447C80.9703 29.9275 81.4136 29.7849 81.8961 29.6169C82.074 29.8672 82.1965 30.1087 82.2637 30.3413ZM79.6833 30.9873C79.7214 31.1194 79.8752 31.2164 80.1446 31.2783C80.4177 31.3423 80.6889 31.3352 80.9583 31.257C81.2305 31.1781 81.4403 31.0658 81.5877 30.9203C81.736 30.7777 81.7914 30.6418 81.7541 30.5125C81.7342 30.4436 81.7041 30.3823 81.6638 30.3286C81.243 30.4632 80.8879 30.5724 80.5985 30.6564C80.312 30.7395 80.0101 30.8178 79.6928 30.8911C79.6756 30.9179 79.6725 30.9499 79.6833 30.9873Z" fill="black"/>
<path d="M80.5871 32.9327L80.9229 32.8555C81.6409 32.2886 82.1726 31.9439 82.518 31.8216L82.5907 32.38C82.2797 32.519 81.9208 32.7427 81.5139 33.051C82.0955 33.1719 82.6139 33.2505 83.0691 33.287L83.1372 33.8051C82.4743 33.7305 81.7913 33.6145 81.0881 33.4572C80.8251 33.5115 80.5948 33.5614 80.3971 33.6069C80.1994 33.6523 80.0015 33.7039 79.8036 33.7617L79.7326 33.1706C79.997 33.0822 80.2818 33.0029 80.5871 32.9327Z" fill="black"/>
<path d="M83.4509 37.5876C83.4775 37.8223 83.4237 38.0104 83.2896 38.1521C83.1559 38.2967 82.9764 38.3818 82.7511 38.4074C82.5999 38.4246 82.3712 38.3663 82.0649 38.2326C81.7615 38.0986 81.4501 37.9203 81.1307 37.6979C81.1618 37.7605 81.1888 37.8929 81.2117 38.0949C81.2349 38.2999 81.2423 38.4585 81.234 38.5708L80.7256 38.5745C80.7196 38.3886 80.7095 38.2333 80.6954 38.1085C80.6567 37.7668 80.5425 37.3946 80.3529 36.9919L80.718 36.7562C81.0243 37.0494 81.389 37.3134 81.8118 37.5482C82.2346 37.783 82.5276 37.8911 82.6906 37.8726C82.8566 37.8537 82.9322 37.7789 82.9174 37.6482C82.9053 37.5412 82.8304 37.4369 82.6928 37.3352C82.5585 37.2361 82.3743 37.1337 82.1402 37.0279L82.401 36.5468C83.0582 36.8633 83.4082 37.2102 83.4509 37.5876Z" fill="black"/>
<path d="M80.7879 41.727C81.3158 41.6951 81.7751 41.6784 82.1659 41.677C82.5596 41.6755 82.9698 41.6829 83.3965 41.6993L83.3184 41.1524L83.837 41.0517C83.8888 41.3446 83.9272 41.6345 83.9521 41.9214L84 42.76L83.5036 42.8471C83.4941 42.6826 83.48 42.4973 83.4613 42.2911C83.0317 42.2747 82.6379 42.2672 82.28 42.2686C81.922 42.2699 81.409 42.2778 80.7408 42.2923L80.7879 41.727Z" fill="black"/>
<path d="M80.7732 44.4563L81.3995 44.3844L81.4059 43.7156L80.5742 43.5033L80.6591 42.8789L83.8591 43.8428L83.7464 44.6679L80.6872 45.1032L80.7732 44.4563ZM83.2552 44.1853L81.8794 43.8336L81.8723 44.3362L83.2552 44.1853Z" fill="black"/>
<path d="M80.6674 45.6253C81.2826 45.6504 81.8439 45.6894 82.3512 45.7423C82.8615 45.7955 83.3227 45.8602 83.7347 45.9362L83.6197 46.5239C83.114 46.4261 82.6282 46.3529 82.1624 46.3043C81.6966 46.2557 81.3531 46.2274 81.132 46.2194C81.1358 46.328 81.1381 46.5943 81.1391 47.0183L80.6136 47.0536C80.61 46.8278 80.5982 46.5079 80.5782 46.094L80.6674 45.6253Z" fill="black"/>
<path d="M80.4781 47.3489C80.9321 47.3999 81.4419 47.4705 82.0076 47.5606C82.5732 47.6506 83.0541 47.7423 83.45 47.8356L83.2964 48.4333C82.9358 48.3456 82.4859 48.2589 81.9468 48.173C82.4977 48.6422 82.9644 49.0041 83.3469 49.2588L83.0375 49.7817C82.6469 49.5016 82.2006 49.1353 81.6984 48.683C81.1832 48.9037 80.7845 49.1324 80.5023 49.3691L80.1073 48.8884C80.4945 48.5988 81.0016 48.3435 81.6286 48.1224C81.0895 48.0366 80.6518 47.9775 80.3157 47.9452L80.4781 47.3489Z" fill="black"/>
<path d="M82.9597 51.0802C82.9111 51.3052 82.8 51.4662 82.6265 51.5632C82.4559 51.6608 82.2613 51.6859 82.0426 51.6384C81.9406 51.6163 81.8586 51.5787 81.7969 51.5255C81.7351 51.4723 81.6893 51.4303 81.6593 51.3993C81.6287 51.3712 81.59 51.3246 81.543 51.2593C81.4954 51.197 81.4614 51.1498 81.4408 51.1179C81.3486 50.9938 81.2704 50.8821 81.2065 50.7825C81.0949 50.6207 80.9837 50.5277 80.873 50.5037C80.8321 50.4948 80.7854 50.4923 80.7327 50.4962L80.8568 50.1331C80.9411 50.0535 81.027 50.0231 81.1145 50.0421C81.2049 50.0617 81.289 50.1105 81.3667 50.1886C81.4474 50.2673 81.5218 50.3538 81.59 50.4481C81.661 50.5431 81.7212 50.6249 81.7704 50.6937C81.8219 50.7661 81.8609 50.8189 81.8873 50.8522C81.9131 50.8884 81.9455 50.929 81.9846 50.9742C82.0611 51.0581 82.1285 51.1064 82.1868 51.119C82.248 51.1323 82.3013 51.1255 82.3468 51.0987C82.3923 51.0718 82.4216 51.0277 82.4349 50.9664C82.4645 50.829 82.3669 50.5814 82.142 50.2237L82.5789 49.8963C82.9015 50.367 83.0285 50.7617 82.9597 51.0802ZM80.4986 50.4775C80.4334 50.497 80.3279 50.491 80.1821 50.4594C80.0363 50.4277 79.9145 50.3769 79.8167 50.3067L80.0299 49.8069C80.1315 49.8595 80.2406 49.8984 80.3572 49.9237C80.4768 49.9497 80.578 49.9686 80.6609 49.9804L80.4986 50.4775Z" fill="black"/>
<path d="M78.7663 60.2019C78.661 60.2079 78.5222 60.1697 78.3499 60.0873C78.1803 60.0062 77.9912 59.8827 77.7826 59.7167L78.3047 58.8383C78.5571 58.9954 78.7574 59.1094 78.9055 59.1802C79.0563 59.2523 79.1767 59.3082 79.2668 59.348L78.7663 60.2019Z" fill="black"/>
<path d="M73.9438 64.11C74.5014 64.5617 75.0075 64.9522 75.462 65.2814C75.9166 65.6106 76.2161 65.8257 76.3605 65.9266C76.2941 66.2842 76.1569 66.6073 75.949 66.8957C75.7953 67.109 75.5992 67.2381 75.3607 67.283C75.1205 67.3304 74.8771 67.2647 74.6304 67.0861C74.3451 66.8795 74.2166 66.4784 74.2448 65.8828C73.8101 65.9037 73.3442 65.9093 72.847 65.8997L72.841 65.3642C73.1808 65.3778 73.753 65.3754 74.5576 65.3568C74.1905 65.0799 73.849 64.8159 73.533 64.565L73.9438 64.11ZM74.7964 65.5463C74.7517 65.787 74.7456 66.015 74.7781 66.2303C74.813 66.4474 74.8812 66.5927 74.9828 66.6662C75.0843 66.7398 75.1848 66.7664 75.284 66.7461C75.3816 66.7282 75.4653 66.6708 75.5352 66.5738C75.605 66.4769 75.6614 66.3554 75.7041 66.2093C75.2955 65.9133 74.9929 65.6923 74.7964 65.5463Z" fill="black"/>
<path d="M72.491 66.1191C72.864 66.4081 73.2135 66.6858 73.5397 66.952C73.8658 67.2183 74.2751 67.5833 74.7677 68.0472C74.5057 68.4927 74.2212 68.9044 73.9142 69.2823L73.4874 68.934C73.7003 68.672 73.89 68.4219 74.0565 68.1838C73.805 67.9631 73.6108 67.7949 73.4739 67.6793C73.3562 67.8762 73.2017 68.0972 73.0104 68.3421L72.5751 68.0966C72.699 67.9394 72.871 67.6922 73.091 67.3551C72.8134 67.1285 72.6124 66.9663 72.488 66.8686C72.3403 67.0835 72.179 67.3529 72.0043 67.6769L71.5746 67.4245C71.6446 67.1537 71.7888 66.8839 72.0073 66.615L72.491 66.1191Z" fill="black"/>
<path d="M70.3789 68.6787L70.9073 69.0233L71.3374 68.5119L70.8313 67.8171L71.2936 67.39L73.1473 70.1767L72.5359 70.7406L69.9014 69.1224L70.3789 68.6787ZM72.4641 70.055L71.6273 68.9052L71.3024 69.2881L72.4641 70.055Z" fill="black"/>
<path d="M71.2322 72.2286C70.9816 72.4721 70.6934 72.5607 70.3674 72.4943C70.0393 72.43 69.7393 72.2572 69.4673 71.976C69.2576 71.7591 69.0936 71.5208 68.9752 71.261C68.859 71.0033 68.8103 70.7382 68.8293 70.4658C68.8504 70.1954 68.9584 69.9656 69.1533 69.7762C69.1918 69.7387 69.352 69.6122 69.6338 69.3967C70.0502 69.8874 70.4048 70.2841 70.6976 70.5868C70.9903 70.8895 71.3239 71.215 71.6982 71.5634C71.561 71.8383 71.4057 72.06 71.2322 72.2286ZM69.4529 70.2471C69.3544 70.3428 69.341 70.5245 69.4128 70.792C69.4846 71.0638 69.618 71.3006 69.8132 71.5024C70.0105 71.7063 70.2077 71.8395 70.4051 71.9017C70.6003 71.9661 70.7461 71.9514 70.8424 71.8578C70.8938 71.8078 70.9337 71.7524 70.9621 71.6915C70.6462 71.3821 70.3834 71.119 70.1737 70.9022C69.9661 70.6875 69.7556 70.4569 69.5421 70.2104C69.5105 70.2078 69.4808 70.22 69.4529 70.2471Z" fill="black"/>
<path d="M68.1626 71.9596L68.3882 72.2207C69.2244 72.5905 69.7775 72.8996 70.0473 73.148L69.5893 73.4742C69.321 73.2641 68.9556 73.0513 68.4931 72.8356C68.6594 73.4072 68.8332 73.9031 69.0145 74.3231L68.5899 74.6264C68.3448 74.0046 68.1267 73.3455 67.9355 72.6492C67.7643 72.4418 67.6123 72.2613 67.4795 72.1076C67.3468 71.9538 67.2085 71.8029 67.0648 71.6548L67.5523 71.3147C67.7542 71.5073 67.9576 71.7223 68.1626 71.9596Z" fill="black"/>
<path d="M65.4043 76.678C65.2099 76.8116 65.0189 76.8522 64.8312 76.8C64.6411 76.7494 64.4819 76.6304 64.3537 76.443C64.2677 76.3172 64.2117 76.0874 64.1859 75.7535C64.1617 75.422 64.1727 75.0628 64.219 74.6757C64.1783 74.7326 64.0744 74.8186 63.9071 74.9335C63.7373 75.0502 63.6011 75.1312 63.4982 75.1765L63.2566 74.7281C63.4175 74.6356 63.5497 74.5538 63.653 74.4828C63.9359 74.2883 64.2103 74.0127 64.4762 73.6559L64.8551 73.8687C64.7404 74.2774 64.6788 74.724 64.6702 75.2084C64.6617 75.6929 64.7038 76.003 64.7965 76.1386C64.891 76.2767 64.9924 76.3085 65.1006 76.2341C65.1892 76.1732 65.246 76.058 65.2711 75.8885C65.2954 75.7232 65.2993 75.512 65.2827 75.2551L65.8289 75.2604C65.8582 75.9907 65.7167 76.4632 65.4043 76.678Z" fill="black"/>
<path d="M60.5081 76.2617C60.7837 76.7141 61.0138 77.1129 61.1984 77.4582C61.3843 77.8061 61.5702 78.1727 61.7559 78.5581L62.2011 78.2325L62.533 78.6445C62.2993 78.8277 62.0618 78.9976 61.8207 79.1542L61.1043 79.5899L60.7948 79.1913C60.9352 79.1057 61.0919 79.0063 61.2648 78.893C61.0777 78.5051 60.8997 78.1529 60.7306 77.8366C60.5616 77.5204 60.314 77.0699 59.9879 76.4851L60.5081 76.2617Z" fill="black"/>
<path d="M58.0963 77.5287L58.4534 78.0495L59.0457 77.7415L58.8427 76.9056L59.4327 76.6879L60.0841 79.973L59.3042 80.2601L57.486 77.756L58.0963 77.5287ZM59.4991 79.5989L59.1638 78.216L58.7176 78.4454L59.4991 79.5989Z" fill="black"/>
<path d="M57.0167 77.9832C57.2831 78.5397 57.512 79.0549 57.7033 79.5288C57.8957 80.0056 58.055 80.4442 58.1812 80.8446L57.6094 81.0184C57.4585 80.5248 57.2952 80.0604 57.1195 79.6253C56.9439 79.1901 56.8077 78.8727 56.7111 78.6732C56.6172 78.7275 56.3836 78.8544 56.0105 79.0541L55.7329 78.6055C55.9302 78.4964 56.2066 78.336 56.5619 78.1241L57.0167 77.9832Z" fill="black"/>
<path d="M55.4092 78.624C55.5772 79.0499 55.7541 79.5344 55.94 80.0774C56.126 80.6204 56.2707 81.089 56.3741 81.4834L55.7755 81.6277C55.6836 81.2673 55.5491 80.8283 55.3718 80.3108C55.2168 81.0185 55.1168 81.6014 55.0718 82.0595L54.4659 82.0308C54.5296 81.5537 54.643 80.9867 54.806 80.33C54.3699 79.9774 53.9814 79.7317 53.6406 79.5929L53.8789 79.0178C54.3156 79.2247 54.7784 79.5539 55.2673 80.0053C55.09 79.4878 54.9368 79.0726 54.8077 78.7598L55.4092 78.624Z" fill="black"/>
<path d="M53.2853 82.5709C53.0643 82.6334 52.8703 82.6106 52.7035 82.5024C52.5375 82.3972 52.4241 82.2366 52.3633 82.0208C52.335 81.9201 52.3298 81.8299 52.3476 81.7503C52.3655 81.6707 52.3811 81.6103 52.3943 81.5693C52.4047 81.5291 52.4276 81.4729 52.4631 81.4007C52.4957 81.3294 52.5213 81.2771 52.5398 81.2439C52.6058 81.104 52.6677 80.9825 52.7254 80.8791C52.8157 80.7045 52.8455 80.5625 52.8147 80.4531C52.8033 80.4128 52.7836 80.3703 52.7555 80.3254L53.1337 80.265C53.2433 80.3023 53.3103 80.3642 53.3347 80.4505C53.3598 80.5397 53.3562 80.637 53.3239 80.7425C53.2924 80.8508 53.251 80.9573 53.1999 81.0618C53.1496 81.1693 53.1056 81.2609 53.0681 81.3368C53.0285 81.4163 53.0002 81.4756 52.9833 81.5145C52.9635 81.5543 52.9429 81.6021 52.9214 81.6579C52.8833 81.765 52.8724 81.8473 52.8886 81.9048C52.9056 81.9653 52.9366 82.0093 52.9816 82.037C53.0266 82.0647 53.0792 82.07 53.1395 82.0529C53.2744 82.0147 53.4468 81.8122 53.6565 81.4453L54.1499 81.6786C53.8865 82.1849 53.5983 82.4824 53.2853 82.5709ZM52.6621 80.1095C52.6144 80.0608 52.5702 79.9646 52.5297 79.8207C52.4892 79.6768 52.4769 79.5451 52.4929 79.4257L53.0333 79.38C53.0346 79.4946 53.0514 79.6094 53.0838 79.7246C53.117 79.8425 53.1478 79.941 53.1763 80.02L52.6621 80.1095Z" fill="black"/>
<path d="M45.6277 82.9949C45.568 82.9078 45.5286 82.7691 45.5094 82.5787C45.4906 82.3912 45.4978 82.1651 45.5312 81.9003L46.5512 81.8919C46.5481 82.1897 46.5548 82.4204 46.5713 82.5841C46.588 82.7507 46.6028 82.8829 46.6157 82.9808L45.6277 82.9949Z" fill="black"/>
</svg>
