<?xml version="1.0" encoding="UTF-8"?>
<svg id="_Слой_1" data-name="Слой 1" xmlns="http://www.w3.org/2000/svg" viewBox="0 0 228.77 243.17">
  <g>
    <path fill="current" d="M22.11,156.65l24.04,.14c5.31-.32,4.94-.37,7.07-.91,.91-.22,1.72-.32,2.42-.32,2.46,.01,4.85,1.68,7.15,5.01,2.31,3.32,3.45,6.74,3.43,10.24-.01,2.4-.83,4.15-2.45,5.24-1.22,.82-2.68,1.23-4.39,1.22-1.61,0-3.01-.42-4.19-1.24-1.18-.82-2.34-2.17-3.49-4.05-.99-1.72-1.78-2.84-2.35-3.37-.58-.53-1.27-.79-2.09-.8-1.13,0-1.93,.42-2.42,1.27-.49,.85-.74,2.26-.75,4.22l-.14,24.58c-.01,2.37,.25,12.57,.79,13.65s1.57,1.91,3.09,2.5c1.64,.65,2.75,1.25,3.34,1.82,.59,.57,.88,1.35,.88,2.34-.01,1.99-1.78,5.97-4.47,4.4-10.14-5.89-12.19-7.2-18.33-13.29-5.33-5.28-6.43-6.99-9.97-12.11-1.7-2.47-3.82-4.3-3.87-6.44-.03-1.13-.27-2.83,.83-3.46,.27-.14,2.43-1.21,4.07-.15,2.88,1.85,3.68-.3,4.01-1.26,.47-1.36,.81-4.23,.92-6.8,.1-2.41,1.6-10.83-.73-16.02-1.97-4.4,1.13,3.35,0,0-2.27-6.71-.71-5.52-5.74,1.19-.68,.91-.78-2.43,0,0,.56,1.73,1.13-1.54,0,0-2.05,2.8-2.31,3.24-3.62,4.14-1.56,1.07-3.06,1.6-4.52,1.59-1.64,0-2.17,.17-4.05-1.7-1.1-1.09-2.6-3.29-2.8-5.02-.21-1.79,.11,.23-.21-1.79-.35-2.19,3.34-5.65,4.78-7.38,2.33-2.8,4.61-4.19,6.87-4.18,.61,0,1.31,.09,2.1,.26,1.64,.31,36.13,11.72,2.61,6.29-1.04-.17,.83,.18,2.2,.19Z"/>
    <path fill="current" d="M118.07,241.42c-5.27,0-3.07,.7-6.79,.27-2.84-.33-5.2-.48-6.97-2.64-1-1.22-2.84-4.17-4.67-4.18-.61,0-.89,1.2-1.9,1.88-1.26,2.71-2.18,4.35-10.89,3.51-3.97-.38-5.78-2.23-8.23-3.78-1.61-1.03-2.88-2.37-3.81-4.02-.93-1.65-1.03-3.4-1.38-5.16-1.31-6.54-10.22-34.39,3.88-64.09,4-3.45,8.55-5.17,16.48-5.15,1.76,0,2.87-.14,3.33-.46,.46-.31,.69-1.05,.7-2.21,.02-2.92-.31-5.04-.97-6.36-.66-1.31-1.75-1.98-3.27-1.98-.91,0-1.73,.24-2.44,.73s-1.61,1.4-2.68,2.72c-2.73,3.49-5.57,5.22-8.51,5.21-1.49,0-2.7-.42-3.64-1.22-.94-.81-1.4-1.86-1.4-3.15,0-1.32,.6-2.65,1.78-3.96,1.82-2.03,4.03-3.07,6.52-3.96,2.97-1.06,5.78-2.66,8.61-4.1,1.76,0,5.1-2.6,6.7-3.42,2.39-1.22,4.79-2.44,7.18-3.66,1.52-.78,4.4-3.06,6.04-2.81,1.76,.26,3.81,3.23,4.48,4.7,.76,1.67,1.14,3.97,1.12,6.9l-.13,20.29c-.03,4.28-4.1,70.26-.47,71.88,.33,.61,.65-.42,.95-.25,.3,.17,.94,.32,1.91,.47,.97,.14,1.46,.73,1.45,1.75,0,1.32-1.05,2.43-1.78,4.13-1.38,3.24-1.74-1.48-2.81,.3-2.42,4.03-3.01,1.32-5.24,.23-2.37-1.16-6.27-1.22-8.59-2.82m-13.47-13.99c.19,1.84,.39,3.75,.63,5.73,.13,1.06,3.34,.92,4.36,.38,1.47-.78,7.37-48.88,3.1-58.43-3.05-6.81,1.99-2.54,1.64-3.06-.35-.53,2.2,1.44,1.22,1.4-1.34,0-5.82-3.12-6.81-2.14-.99,.99-2.77,2.18-2.93,3.55-3.99,34.75-1.75,14.23-1.09,9.16-1.28,9.94-1.39,24.99-.95,31.88,.18,2.84,.52,5.67,.68,8.5,.13,2.3-.33,6.24,1.61,7.96,1.36,1.21,3.45,1.53,5.12,.81l-.09-.68c1.04-.57,2.42,.46,2.51,1.64s-.7,2.26-1.64,2.98c-2.23,1.72-5.51,1.97-7.98,.61-.53-.29-1.03-.65-1.43-1.11-.89-1.01-1.22-2.48-.86-3.77s1.42-2.37,2.72-2.77"/>
    <path fill="current" d="M152.06,136l-.08,13.28c-.03,5.88,.04,75.68,.24,76.65,.19,.97,.94,1.72,2.25,2.25,1.12,.45,1.87,.87,2.25,1.25,.38,.39,.56,.94,.56,1.66,0,.91-.37,1.74-1.09,2.48-.72,.74-1.67,1.26-2.86,1.56-2.19,.59-6,2.59-11.09,3.67-4.8,1.02-9.99,2.37-12.35,1.55-1.09-.36-1.99-.93-2.68-1.69-.7-.76-1.04-1.56-1.04-2.38,0-.66,.2-1.17,.58-1.53,.38-.35,1.21-.78,2.49-1.27,1.19-.46,1.93-7.39,2.21-9.49,.51-3.58,.78-75.07,.82-81.69,.04-6.73-.15-11.06-.56-13-.41-1.93-1.47-3.37-3.17-4.32-1.27-.67-2.14-1.3-2.61-1.9-.47-.6-.7-1.32-.7-2.18,0-1.35,.73-2.53,2.16-3.53s3.72-1.92,6.86-2.75c2.1-.57,4.82-1.1,8.17-1.61,3.35-.5,5.78-.75,7.3-.74,2.4,.01,3.59,1.37,3.58,4.08,0,.88-.17,2.91-.49,6.08-.42,4.94-.68,9.46-.76,13.57Z"/>
    <path fill="current" d="M222.72,150.96c-1.19-.6,.16,2.27-3.42-1.9-3.33-3.89-1.91-2.31-3.33-3.89-2.21-2.41-4.58-5.25-7.13-8.5-2.55-3.26-3.82-5.08-3.82-5.46,0-.58,1.45-1.03,3.21-2.77,7.23-7.16,9.61-12.89,13.77-10.7,1.33,.7,2.37-.41,2.65-.52,1.31-.49,1.97-1.35,1.98-2.6,0-.85-.31-1.66-.94-2.41-.63-.75-1.68-2.29-2.41-3-2.89-2.8-7.55-9.02-11.75-11.25-5.29-2.81-10.33-2.67-10.35,.31,0,.53,.24,1.08,.72,1.66,.66,.81,.71,1.53,.99,1.66,9.96,4.56-9.51,25.32-11.4,26.37-1.89,1.05-3.29,1.58-4.21,1.57-1.06,0-1.7-7.64-1.9-8.77-.09-.5-.13-2.14-.11-4.93,.02-2.51,.04-4.41,.08-5.71l.48-12.95c.07-1.35-.76-2.03-2.5-2.04-3.83-.02-9.74,1.28-17.72,3.91-2.5,.81-4.3,1.64-5.4,2.47-1.1,.84-1.65,1.78-1.66,2.82,0,1.57,1.23,2.52,3.72,2.84,1.37,.17,2.22,.69,2.57,1.55,.35,.86,.51,2.83,.49,5.92l-.05,9.06c-.02,8.06-.39,80.4-1.11,84.25-.19,.72-.43,11.13-.74,11.46-.31,.33-1.01,.81-2.11,1.44-1.28,.77-1.92,1.67-1.93,2.72,0,.94,.35,1.83,1.08,2.67,.72,.85,1.6,1.41,2.63,1.69,5.1,1.39,13.32-2.55,17.63-5.29,3.27-2.08,13.05-9.14,7.59-13.19-1.09-.81-1.79-1.49-2.09-2.06-.3-.57-.57-3.95-.44-2.71,0,.05,.07-58.07,.2-60.72,.02-.51,.37-.74,.73-.74,.3,0,.67,.22,1.11,.67,.44,.44,1.65,1.83,3.65,4.16,0,0,7.52,8.86,7.52,8.86,4.48,5.34,9.89,10.3,12.74,16.65,3.68,8.21,2.24,2.9,3.42,4.29,1.82,2.13,2.6,2.18,4.2-.48,3.21-5.33,5.4-11.26,6.56-17.35,.48-2.5,1.21-5.05-.62-7.22-.67-.79-1.61-1.34-2.61-1.84Z"/>
    <path fill="current" d="M212.84,172.37c.19,3.11,.68,6.86,2.46,7.8,1.14,.6,2.4-.33,3.22-1.78s1.28-3.34,1.73-5.19"/>
    <path fill="current" d="M203.17,156.5c4.76-1.68,9.52-2.8,14.29-4.47,3.14-1.1,6.49-2.26,8.7-2.39,3.16-.19,2.8,1.74,2.23,3.52-.84,2.63-5.79,21.19-2.52,7.33"/>
    <path fill="current" d="M152.56,120.53c.49-3.64,.98-7.28,1.47-10.92,.16-1.2,.21-2.66-.79-3.35-.87-.6-2.05-.26-3.04,.11-8,2.96-15.74,6.62-23.1,10.92"/>
    <path fill="current" d="M204.63,102.46l-2.8-1.84c-.57-.38-1.18-.8-1.42-1.44s.11-1.53,.8-1.57c.12,.45,.24,.89,.37,1.34,.42-.21,.85-.41,1.27-.62"/>
    <path fill="current" d="M203.24,96.2c-.95-.23-2.03,.17-2.58,.98s-.54,1.95,.03,2.73"/>
    <path fill="current" d="M77.51,235.11c-5.37-4.72-8.48-12.22-10.07-18.43-1.6-6.22-1.79-12.6-1.97-18.94-.2-7.02-.39-14.14,1.82-20.95,2.21-6.8,7.16-13.36,14.98-16.73"/>
    <path fill="current" d="M89.61,176.34c.14-1.86,.29-3.8,1.19-5.44s2.79-2.91,4.63-2.51c1.71,.37,9.51,8.25,4.91,1.28-.52-.79,12.97,6.98,1.03-2.43-.75-.59-.88-1.69-1.65-2.24-3.38-2.39-8.41-.88-11.11,2.24-2.7,3.12-3.62,7.36-4.22,11.43-.64,4.3,.34,35.76,1.19,29.58,1.9-13.8,3.56-25.31,4.04-31.89Z"/>
    <path fill="current" d="M102.14,182.43c-.63-4.75-2.32-9.37-4.9-13.42,1.2,.49,2.67,.75,3.87,1.24,2,.82,4.12,1.73,5.29,3.53,.88,1.36,1.08,3.13,.52,4.65s-3.22,3.51-4.78,4Z"/>
    <path fill="current" d="M107.67,240.23c1.3,2.95,5.07,3.08,7.48,1.46,5.99-4.01,5.26-1.96,4.06-3.76"/>
    <path fill="current" d="M105.68,238.29c1.47,3.58,5.87,5.68,9.61,4.59,3.74-1.09,6.29-5.21,5.58-9"/>
    <path fill="current" d="M105.02,239.49c2.1,3.24,6.89,4.43,10.28,2.55"/>
    <path fill="current" d="M115.9,232.66c.36,.59,1.18,.71,1.88,.65s1.42-.26,2.08-.05,1.19,1.05,.77,1.6"/>
    <path fill="current" d="M112.5,130.15c-.63-.96-1.95-1.3-3.09-1.12s-2.17,.8-3.16,1.39c-6.17,3.72-12.34,7.45-18.51,11.17"/>
    <path fill="current" d="M22.89,153.26c7.3,1.88,14.94,2.46,22.44,1.72,4.26-.42,8.88-1.2,12.55,.98-10.89,3-24.86,2.28-34.99-2.7Z"/>
    <path fill="current" d="M27.82,165.84c-3.79-1.87-4.1-2.24-6.38-2.6s-3.89,2.66-5.37,4.44c1.62-1.93,3.78-6.43,5.39-8.37,.82-.98,.53-2.07,1.75-1.71,.73,.21,1.21,.87,1.61,1.52,1.28,2.06,2.47,4.36,2.99,6.73Z"/>
  </g>
  <g>
    <path fill="current" d="M13.06,57.93c.66-4.19,1.64-8.55,4.25-11.99,6.19-8.14,12.31-14.06,19.8-19.88,3.91-3.04,8.23-7.64,13.28-7.71,2.43-.03,4.92,.74,6.65,2.36s.84,4.23,1.82,6.33c.98,2.12-6.39,5.35-5.98,5.23-3.39,1.05-6.29,3.4-7.35,6.72-4.01,12.63,5.15-8.04-1.98,8.8-1.43,3.38-.94,6.59-.94,12.1,0,10.6,.16,10.46,.16,15.68v50.01c0,2.37,.29,6.92,.86,8s1.65,1.9,3.24,2.48c1.72,.64,2.88,1.24,3.5,1.8,.62,.57,.93,1.34,.93,2.34,0,1.99-1.55,3.46-4.65,4.43s-6.38,.62-12.79-.23c-7.83-1.04-13.4-3.77-16.93-5.95-2.82-1.74-4.81-2.46-4.81-4.55,0-1.13,.57-2.01,1.72-2.65,.29-.14,1.41-.47,3.38-.99,1.21-.3,4.41-.6,4.88-1.45,.46-.85,.83,.33,1.12-2.1,.25-2.15,.49-32.47,.71-37.29,.16-3.46,.28-6.92,.32-10.38,.03-2.41,.45-5.31-1.74-7.04-5.69-4.5-10.42,5.84-11.24,9.73-1.44,6.78-8.41,.71-8.7-1.32-.18-1.29-1.7-2.05-1.74-3.34-.05-1.83,.65-3.35,1.79-4.78,1.01-1.27,1.35-2.28,1.9-3.8,.66-1.81,3-5.09,3.93-6.78,2.19-4.02,5.16-9.13,7.94-12.83,8.64-11.48,13.43-17.18,26.1-25.16,1.44-.9,2.91-3.17,4.41-3.95,2.42-1.26,5.71-2.9,7.87-1.27,3.05,2.3,6.88,11.7,3.93,11.69-3.91-.02-8.21,4.82-12.98,12.14m-28.3,27.43c-1.86,1.19-3.48,2.71-4.74,4.47-.95,1.31-1.72,2.77-2.99,3.8s-6.24,1.52-7.59,.59c-1.04-.71-1.41-2.07-1.23-3.28s.8-2.31,1.42-3.38c.79-1.38,1.58-2.75,2.37-4.13m14.87,.26c-2.71,3.64-7.89,6.47-8.12,10.92-.12,2.17-6.09-.34-5.48,3.17,.35,2.01-4.52-1.81-5.59-3.92-.69-1.35,.2-2.97,.77-4.36,1.66-4.03,6.99-7.8,9.89-11.14m18.34-28.94c2.55-2.61,18.36-16.05,21.88-17.28,1.87-.65,4.43-1.41,5.74,0,2.85,3.07,5.16,15.92,1.66,12.46-1.44-1.42-.18-2.69-1.57-1.23M5.02,82.31c-2.13,.26-4.04-1.61-4.46-3.6s.26-4.04,.99-5.96c6.02-15.59,16.92-29.45,30.96-39.37M8.77,83.2c.37,3.32-4.66,.78-6.46-.55s-2.68-3.69-2.16-5.8m3.81-8.24c3.65-8.59,8.52-16.71,14.45-24.07"/>
    <path fill="current" d="M83.89,3.58c.87-.14,1.74-.26,2.61-.36,6.12-.71,12.88-2.18,15.98,4.21,.81,1.67,1.22,5.38,1.22,8.3l-.04,28.76c0,4.28,.35,64.96,1.05,66.23,.35,.61,.68,.99,1,1.16s.98,.32,2,.46c1.02,.14,1.53,.72,1.53,1.74,0,1.32-.61,2.7-1.83,4.14-1.22,1.43-2.81,2.63-4.74,3.6-2.38,1.21-4.88,1.82-7.48,1.82-3.34,0-5.98-.99-7.91-2.98-.67-.72-1.29,11.64-1.86,11.64-.64,0-1.48,.34-2.53,1.03-3.18,2.01-6.79,3.02-10.82,3.02s-7.53-.77-10.11-2.32c-1.69-1.02-3.02-2.35-4.01-3.99-.99-1.64-1.48-3.36-1.48-5.15,0-2.87-3.89-45.28,4.01-78.24,4.16-3.48,10.39-5.23,18.69-5.26,1.84,0,3.42,.07,3.48-.48,1.94-16.35,1.06-17.05,.66-20.58-.33-2.91-.35-5.04-1.05-6.35-.7-1.31-1.84-1.97-3.43-1.97-.95,0-2.55-.67-2.55-.67,0,1.5-1.68,1.41-2.79,2.73-2.83,3.5-5.79,5.26-8.87,5.26-1.56,0-2.83-.4-3.81-1.2-.99-.8-1.48-1.85-1.48-3.14s.61-2.65,1.83-3.97,2.88-2.48,4.98-3.48c5.61-2.58,11.61-3,17.77-3.97Zm-2.88,43.73c-1.4,0-3.15,.18-3.65,1.49-8.16,21.72-1.55,72.8-1.55,74.18s.37,2.39,1.1,3.21c.73,.81,1.7,1.22,2.91,1.22,2.54,0,3.81-72.48,3.81-76.21,0-1.52-.18-2.54-.55-3.06s-1.06-.8-2.07-.83Z"/>
    <path fill="current" d="M138.15,68.8v13.28c0,5.88,.1,9.3,.31,10.26,.21,.97,.99,1.71,2.36,2.23,1.17,.44,1.96,.86,2.36,1.24,.4,.39,.6,.94,.6,1.66,0,3.34-4.62,4.94-7.13,6.36-3.15,1.78-6.36,3.47-9.63,5.04-3.8,1.83-11.07,7.12-14.66,3.4-.73-.76-1.1-1.55-1.1-2.38,0-.66,.2-1.17,.6-1.53,.4-.36,1.58-.32,2.6-1.28,2.54-2.4,2-11.64,2.29-13.74,.51-3.58,.76-11.51,.76-18.13s-.22-54.85-.67-56.78c-.45-1.93-1.9-8.59-3.34-9.95s-2.25-2.7-2.74-3.3c-.49-.59-.74-1.32-.74-2.17,0-4.57,8.92-2.63,12.17-2.45,5.47,.29,17.15,1.04,17.15,7.62,0,.88-.16,5.74-.48,8.91-.41,4.94-.65,47.6-.72,51.71Z"/>
    <path fill="current" d="M209.19,79.14c-1.5-.72-1.99-.6-2.83-1.23-.84-.63-4.16-4.13-5.66-5.7-2.32-2.4-4.82-5.06-7.5-8.3-2.69-3.24-4.35-4.37-4.35-4.75,0-.3-7.15-7.09-2.64-8.42,.08-.41,.76,.01,.96-.37,.08-.15,.62-1.13,.71-1.28,.06-.15-.07,.14,0,0,.07-.14-.98-.18-.9-.32-.24-.64,2.03,.63,2.03,.63-.03-.54,1.73-3.35,3.3-4.44,.19-.57,.47-1.33,.87-1.75,.67-.69,2.05,.27,3.01,.23,.76-.03,2.13,.21,2.77,.66,.18-.03-.18,0,0,0,.03,0,.03,0,.05,0,.01,0,.01,0,.03,0,.19-.05,.38-.11,.58-.15,.06-.01,.09-.02,.12-.03,.18-.09,.36-.17,.53-.26,.08-.04,.23-.11,.37-.18,.02-.02,.02-.04,.07-.09,0,0,.28-.31,.41-.42,.02-.04,.04-.07,.06-.1,0-.03-.02-.06-.02-.08-2.42-2.52-5.54-10.31-9.36-10.31-5.48,0-9.17-2.93-11.1-4.18-.04,.17-.08,.35-.12,.52,0,.03,0,.04-.01,.07-.01,.13-.03,.25-.04,.38-.03,.39-.02,.77-.02,1.16,.15,.14,.28,.28,.4,.45,.21,.21,.36,.46,.48,.72,.13,.24,.28,.47,.46,.69,.24,.29,.49,.58,.73,.88,.19,.24,.37,.49,.51,.77,.02,.04,.04,.09,.07,.14,.82,.65,1.35,1.61,1.33,2.66-.02,.92-.18,1.72-.57,2.54,0,.06-.01,.12-.02,.18,.06,.79-.17,1.57-.68,2.26-.08,.33-.15,.66-.24,.99-.06,.26-.17,.49-.29,.72-.03,.09-.05,.17-.08,.26-.02,.2-.03,.42-.05,.62-.14,1.13,1.13,2.33,.81,3.52,.18,1.11-3.11,.89-3.9,1.71-.08,.98-.5,1.93-1.33,2.55-.25,.47-.61,.88-1.08,1.19-.06,.07-.09,.15-.15,.21-.47,1.18-1.56,2.12-3.3,2.12-.39,0-.75-.06-1.07-.15-.15,.06-.29,.11-.41,.11-1.11,0-1.78-.57-2-1.7-.04-.22-.07-.67-.1-1.33-.3-.81-.32-1.72-.04-2.54,0-.33,0-.68,0-1.06,0-2.51,.02-15.71,.05-17.01l.43-12.95c.06-1.35-1.34-2.23-2.62-3.44-.44-.42-.92-.93-1.43-1.49-.47-.16-.95-.33-1.42-.5-3.36-1.2-6.72-1.09-9.92-2.63-1.23-.59-2.45-1.22-3.55-2.01-.15-.11-.29-.22-.44-.32-.46-.02-.92-1.46-1.39-1.49-1.33-.09-2.6-.24-3.84-.51-.86,.46-1.6,.96-2.13,1.34-1.14,.84-1.72,.37-1.72,1.42,0,1.57,1.3,2.51,3.91,2.81,1.43,.17,2.33,.68,2.69,1.53s.55,31.08,.55,34.17v9.06c.03,8.06-.32,26.73-1.05,30.59-.19,.72-.45,1.24-.76,1.57s-1.05,.81-2.19,1.45c-1.34,.77-2,1.68-2,2.73,0,.94,.06,2.39,.83,3.23s0,0,1.08,.28c1.91,.47,8.61-3.13,14.4-5.52,4.95-2.05,9.28-3.25,11.63-4.11,2.35-.86,3.53-2.25,3.53-4.18,0-1.13-.41-1.99-1.24-2.57-1.14-.8-1.88-1.48-2.19-2.05-.32-.56-.48-4.29-.48-5.54,0-1.38,.06-2.32,.19-2.81s.38-.74,.76-.74c.32,0,.71,.22,1.17,.66,.46,.44,1.74,1.82,3.84,4.14l7.91,8.81c1.08,1.21,2.59,1.83,4.53,1.86l15.45,2.82c2.51,0,4.49-.41,5.93-1.24s2.17-1.97,2.17-3.43c0-1.38-1.14-2.61-3.43-3.68Z"/>
    <path d="M60.62,46.42c-4.33,5.67-6.29,12.68-7.68,19.59-1.71,8.5-2.69,17.17-2.16,25.81s2.63,29.97,6.81,37.63"/>
    <path d="M81.12,134.14c4.45-1.52,8.24-5.04,10.2-9.48s2.04-9.73,.24-14.24c-.58-1.46,.13-3,.13-4.58"/>
    <path d="M84.04,36.46c.01,.71,.09,1.53,.71,1.92,.53,.34,1.28,.19,1.79-.18s.82-.93,1.11-1.47c1.2-2.24,2.24-6,2.7-8.48,.52-2.83,.18-5.77-.85-8.46-.48-1.23-3.42-7.37-5.31-6.9-1.65,.41-.17,21.15-.13,23.57Z"/>
    <path d="M200.93,41.93c-.18-.59-.4-1.16-.62-1.74-1.74-2.97-3.18-4.92-6.69-7.74-3.54-2.85-7.54-5.19-11.81-6.91-.02-.01-.05-.02-.08-.03-.07,.13-.16,.25-.23,.38-.08,.14-.14,.3-.22,.44,0,.03-.01,.04-.02,.07-.13,.39-.28,.78-.39,1.18-.11,.4-.19,.81-.28,1.22,0,.03,0,.04-.01,.07-.01,.13-.03,.25-.04,.38-.03,.38,1.06,1.07,1.07,1.44,.16,.14-.8-.02-.68,.16,.21,.21,.36,.46,.48,.72,.13,.24,.28,.47,.46,.69,.24,.29,.48,.57,.72,.87l18.58,9.82s.04-.06,.05-.09c-.08-.31-.17-.62-.26-.92Z"/>
    <path d="M185.84,34.09c-.82-.93-2.87-3.29-4.25-3.41-.34-.03-.57,0-.77,.07,.03,.03,.06,.06,.08,.09,.21,.21,.36,.46,.48,.72,.13,.24,.28,.47,.46,.69,.24,.29,.49,.58,.73,.88,.19,.24,.37,.49,.51,.77,.02,.04,.04,.09,.06,.13,.82,.65,1.35,1.61,1.33,2.66-.02,.92-.18,1.72-.57,2.54,0,.06-.01,.12-.02,.18,.06,.79-.17,1.57-.68,2.26-.08,.33-.15,.66-.24,.99-.06,.26-.17,.49-.29,.72-.07,.23-.14,.46-.21,.67-.26,.74-.57,1.42-.94,2.06-.4,1.39-.13,.63-.79,2.39-.19,1.07-1.9,.72-2.2,1.76-.63,2.23-1.45,4.4-2.47,6.5-.53,1.08-1.11,2.18-1.12,3.37s.8,2.48,2.05,2.61c1.34,.14,2.39-1.02,3.17-2.06,4.12-5.49,9.76-13.63,9.72-16.58-.05-3.65-1.56-7.23-4.04-10.02Z"/>
    <path d="M170.19,52.84c.49,1.25,1.7,2.36,3.11,2.34,1.09-.01,2.07-.67,2.74-1.48s1.1-1.77,1.63-2.67c.23-.4,.5-.8,.9-1.04,5.22-3.05,.96,2.95,1.33,.07-.03,.22,.24,.38,.31,.59,.73,2.33,.39,5.04-1.28,6.87-1.67,1.84-4.78,2.51-6.93,1.2-1.5-.92-2.33-2.61-2.57-4.29-.19-1.35-.14-2.82,.29-4.11,.06,.81,.16,1.74,.47,2.53Z"/>
    <path d="M181.11,47.43c-.36,1.04-2.26,.66-2.65,1.69-.13,.34-.3,.63-.49,.91-1.19,2.99-2.03,5.4-1.56,5.48,6.52-8.98,5.9-1.93,6.71-12.96-.6,1.52-.93,2.29-2.01,4.88Z"/>
    <path d="M169.71,17.3c-1.98-3.8-15.45-12.22-22.42-12.33-1.43-.02-2.05-.43-3.33,.16s-2.36,1.65-2.46,3,1.03,4.18,2.45,4.19"/>
    <path d="M182,25.07c-.18,.27-.35,.54-.5,.82-.08,.14-.14,.3-.22,.44,0,.03-.01,.04-.02,.07-.13,.39-.28,.78-.39,1.18,0,0,0,0,0,0l12.33,5.05c-2.77-2.86-5.68-5.81-9.51-7.17-.54-.19-1.11-.34-1.68-.4Z"/>
    <path d="M74.84,12.82l5.02-1.76c-.78-.42-1.57-.85-2.45-1.02s-1.86-.07-2.54,.49-.9,1.62-.34,2.28"/>
    <path d="M145.43,12.04c1.97,.81,3.49,2.54,3.96,4.52,.47-1.06,.31-2.35-.41-3.27s-1.97-1.45-3.18-1.34"/>
    <path d="M169.94,48.74c-.27,3.03,.11,6.1,1.11,8.99"/>
    <path d="M187.92,47.06c-.68,1.56-1.61,.39-.19-2.69,.26-.63-.12-.77,.26-1.33,.02-.16,.87-.88,.87-.89,0,0,1.22,2,1.22,1.99,.07-.13,.17-.26,.27-.38,.07-.78,.53-1.54,1.07-2.09,.66-.68,1.64-.98,2.58-1.03-3.04-.84-6.44,.94-7.97,3.58-1.17,2.01-3.57,8.97,.18,6.51,.06-.5,.22-1,.47-1.46,.09-.17,.2-.33,.3-.5,.05-.13,.1-.25,.16-.37,.21-.41,.47-.78,.74-1.16,.01-.06,.06-.24,.04-.19Z"/>
    <path d="M181.11,47.43c.12,3.88-2.35,6.37-4.3,9.77-.63,1.1-1.39,2.18-2.46,2.92-1.26,.87-4.06,1.46-4.99-.24-1-1.82,1.78-3.32,2.96-4.45,1.87-1.77,8.87-5.33,8.79-8.02Z"/>
    <path d="M184.2,36.05c-2.3,7.93-7.14,15.19-13.71,20.57-.97,.8-2.1,1.91-1.64,3.05,.33,.84,1.44,1.2,2.36,1.03s1.71-.74,2.43-1.31c11.78-9.38,8.59-6.11,13.29-17.6"/>
    <path d="M199.47,42.92c.51,.54,1.56,.27,1.91-.37s.14-1.45-.29-2.05-1.06-1.04-1.63-1.52-1.11-1.05-1.28-1.76"/>
    <path d="M201.06,42.04c.4-1.01,.15-2.17-.4-3.12s-1.37-1.72-2.18-2.48c-1.99-1.87-5.64-3.74-7.63-5.6"/>
    <path d="M195.64,42.67c-.27,.19-.55,.43-.55,.75s.43-.45,.55-.75"/>
    <path d="M195.89,43.51c.46,.15,.93,.3,1.41,.24s.95-.42,.95-.87"/>
    <path d="M184.37,36.86c-1.51-3.86-2.32-7.96-2.39-12.08,1.98-.58,4.04,.55,5.69,1.75,3.99,2.9,7.42,6.48,10.07,10.53"/>
    <path d="M191.5,46.37c1.18-1.15,2.5-2.38,4.19-2.55,.91-.09,1.88,.13,2.72-.21,1.5-.61,1.62-2.8,.53-3.95s-2.89-1.44-4.52-1.36c-3.64,.18-7.16,1.91-9.41,4.62-2.25,2.71-1.7,6.36-1.03,9.75,.1,.53,.26,1.07,.67,1.44,.76,.69-1.9,2.33-1.53,1.94,.04-.04,2.18-1.29,2.27-1.47,.26-.49,1.89-2.64,2.3-3.04,1.77-1.72,2.04-3.45,3.81-5.18Z"/>
  </g>
</svg>