<svg width="21" height="21" viewBox="0 0 21 21" fill="none" xmlns="http://www.w3.org/2000/svg">
<path d="M10.5 16.3052C10.7292 16.3052 10.9213 16.2278 11.0762 16.0729C11.2302 15.918 11.3072 15.7264 11.3072 15.498C11.3072 15.2696 11.2297 15.0776 11.0749 14.9218C10.92 14.7661 10.7284 14.6886 10.5 14.6895C10.2716 14.6904 10.08 14.7678 9.92513 14.9218C9.77025 15.0758 9.69281 15.2679 9.69281 15.498C9.69281 15.7281 9.77025 15.9198 9.92513 16.0729C10.08 16.226 10.2716 16.3034 10.5 16.3052ZM9.84375 12.4189H11.1562V4.4415H9.84375V12.4189ZM6.13331 21L0 14.8785V6.13331L6.1215 0H14.8667L21 6.1215V14.8667L14.8785 21H6.13331ZM6.69375 19.6875H14.3062L19.6875 14.3062V6.69375L14.3062 1.3125H6.69375L1.3125 6.69375V14.3062L6.69375 19.6875Z" fill="current"/>
</svg>
