<svg width="33" height="33" viewBox="0 0 33 33" fill="none" xmlns="http://www.w3.org/2000/svg">
<path d="M12.5718 1.27539H2.59611C1.7146 1.27539 1 1.98999 1 2.8715V12.8472C1 13.7287 1.7146 14.4433 2.59611 14.4433H12.5718C13.4533 14.4433 14.1679 13.7287 14.1679 12.8472V2.8715C14.1679 1.98999 13.4533 1.27539 12.5718 1.27539Z" stroke="#424242" stroke-width="2" stroke-linecap="round" stroke-linejoin="round"/>
<path d="M29.5024 18.832H19.5268C18.6453 18.832 17.9307 19.5466 17.9307 20.4281V30.4038C17.9307 31.2853 18.6453 31.9999 19.5268 31.9999H29.5024C30.384 31.9999 31.0986 31.2853 31.0986 30.4038V20.4281C31.0986 19.5466 30.384 18.832 29.5024 18.832Z" stroke="#424242" stroke-width="2" stroke-linecap="round" stroke-linejoin="round"/>
<path d="M20.9336 9.53125H18.8516C17.9136 9.53125 17.1533 10.2916 17.1533 11.2295V13.3115C17.1533 14.2494 17.9136 15.0098 18.8516 15.0098H20.9336C21.8715 15.0098 22.6318 14.2494 22.6318 13.3115V11.2295C22.6318 10.2916 21.8715 9.53125 20.9336 9.53125Z" stroke="#424242" stroke-linecap="round" stroke-linejoin="round"/>
<path d="M20.9336 1H18.8516C17.9136 1 17.1533 1.76033 17.1533 2.69824V4.78028C17.1533 5.71819 17.9136 6.47852 18.8516 6.47852H20.9336C21.8715 6.47852 22.6318 5.71819 22.6318 4.78028V2.69824C22.6318 1.76033 21.8715 1 20.9336 1Z" stroke="#424242" stroke-linecap="round" stroke-linejoin="round"/>
<path d="M29.4649 9.53125H27.3828C26.4449 9.53125 25.6846 10.2916 25.6846 11.2295V13.3115C25.6846 14.2494 26.4449 15.0098 27.3828 15.0098H29.4649C30.4028 15.0098 31.1631 14.2494 31.1631 13.3115V11.2295C31.1631 10.2916 30.4028 9.53125 29.4649 9.53125Z" stroke="#424242" stroke-linecap="round" stroke-linejoin="round"/>
<path d="M29.4649 1H27.3828C26.4449 1 25.6846 1.76033 25.6846 2.69824V4.78028C25.6846 5.71819 26.4449 6.47852 27.3828 6.47852H29.4649C30.4028 6.47852 31.1631 5.71819 31.1631 4.78028V2.69824C31.1631 1.76033 30.4028 1 29.4649 1Z" stroke="#424242" stroke-linecap="round" stroke-linejoin="round"/>
<path d="M4.79981 26.0898H2.71777C1.77986 26.0898 1.01953 26.8502 1.01953 27.7881V29.8701C1.01953 30.808 1.77986 31.5684 2.71777 31.5684H4.79981C5.73773 31.5684 6.49805 30.808 6.49805 29.8701V27.7881C6.49805 26.8502 5.73773 26.0898 4.79981 26.0898Z" stroke="#424242" stroke-linecap="round" stroke-linejoin="round"/>
<path d="M4.79981 17.5586H2.71777C1.77986 17.5586 1.01953 18.3189 1.01953 19.2568V21.3389C1.01953 22.2768 1.77986 23.0371 2.71777 23.0371H4.79981C5.73773 23.0371 6.49805 22.2768 6.49805 21.3389V19.2568C6.49805 18.3189 5.73773 17.5586 4.79981 17.5586Z" stroke="#424242" stroke-linecap="round" stroke-linejoin="round"/>
<path d="M13.3311 26.0898H11.249C10.3111 26.0898 9.55078 26.8502 9.55078 27.7881V29.8701C9.55078 30.808 10.3111 31.5684 11.249 31.5684H13.3311C14.269 31.5684 15.0293 30.808 15.0293 29.8701V27.7881C15.0293 26.8502 14.269 26.0898 13.3311 26.0898Z" stroke="#424242" stroke-linecap="round" stroke-linejoin="round"/>
<path d="M13.3311 17.5586H11.249C10.3111 17.5586 9.55078 18.3189 9.55078 19.2568V21.3389C9.55078 22.2768 10.3111 23.0371 11.249 23.0371H13.3311C14.269 23.0371 15.0293 22.2768 15.0293 21.3389V19.2568C15.0293 18.3189 14.269 17.5586 13.3311 17.5586Z" stroke="#424242" stroke-linecap="round" stroke-linejoin="round"/>
</svg>
