<svg width="40" height="40" viewBox="0 0 40 40" fill="none" xmlns="http://www.w3.org/2000/svg">
<path fill-rule="evenodd" clip-rule="evenodd" d="M15 10.416C14.3981 10.416 13.8021 10.5346 13.246 10.7649C12.69 10.9952 12.1847 11.3328 11.7591 11.7584C11.3335 12.184 10.9959 12.6893 10.7656 13.2454C10.5352 13.8015 10.4167 14.3975 10.4167 14.9993C10.4167 15.6012 10.5352 16.1972 10.7656 16.7533C10.9959 17.3094 11.3335 17.8147 11.7591 18.2403C12.1847 18.6659 12.69 19.0035 13.246 19.2338C13.8021 19.4641 14.3981 19.5827 15 19.5827C16.2156 19.5827 17.3814 19.0998 18.2409 18.2403C19.1005 17.3807 19.5833 16.2149 19.5833 14.9993C19.5833 13.7838 19.1005 12.618 18.2409 11.7584C17.3814 10.8989 16.2156 10.416 15 10.416ZM12.9167 14.9993C12.9167 14.4468 13.1362 13.9169 13.5269 13.5262C13.9176 13.1355 14.4475 12.916 15 12.916C15.5525 12.916 16.0824 13.1355 16.4731 13.5262C16.8638 13.9169 17.0833 14.4468 17.0833 14.9993C17.0833 15.5519 16.8638 16.0818 16.4731 16.4725C16.0824 16.8632 15.5525 17.0827 15 17.0827C14.4475 17.0827 13.9176 16.8632 13.5269 16.4725C13.1362 16.0818 12.9167 15.5519 12.9167 14.9993ZM15 20.416C13.0067 20.416 11.1417 20.816 9.72667 21.5243C8.38834 22.1943 7.08334 23.351 7.08334 24.9993V25.1043C7.08 25.9543 7.07667 27.3877 8.43334 28.3693C9.06334 28.8243 9.895 29.116 10.925 29.301C11.9633 29.4877 13.295 29.5827 15 29.5827C16.705 29.5827 18.0367 29.4877 19.075 29.301C20.105 29.116 20.9367 28.8243 21.5667 28.3677C22.9233 27.386 22.92 25.9543 22.9167 25.1027V24.9993C22.9167 23.3493 21.6117 22.1943 20.2733 21.5243C18.8583 20.8177 16.9933 20.416 15 20.416ZM9.58334 24.9993C9.58334 24.8077 9.77167 24.2977 10.845 23.761C11.845 23.261 13.3117 22.916 15 22.916C16.6883 22.916 18.1567 23.261 19.155 23.761C20.2283 24.2977 20.4167 24.8077 20.4167 24.9993C20.4167 26.006 20.3517 26.161 20.1 26.3443C19.8967 26.491 19.4783 26.6877 18.6333 26.841C17.7967 26.991 16.6283 27.0827 15 27.0827C13.3717 27.0827 12.2033 26.991 11.3667 26.841C10.5217 26.6877 10.1033 26.491 9.9 26.3443C9.64667 26.161 9.58334 26.006 9.58334 24.9993Z" fill="#424242"/>
<path d="M31.6663 21.25C31.9979 21.25 32.3158 21.1183 32.5502 20.8839C32.7846 20.6495 32.9163 20.3315 32.9163 20C32.9163 19.6685 32.7846 19.3505 32.5502 19.1161C32.3158 18.8817 31.9979 18.75 31.6663 18.75H24.9997C24.6682 18.75 24.3502 18.8817 24.1158 19.1161C23.8814 19.3505 23.7497 19.6685 23.7497 20C23.7497 20.3315 23.8814 20.6495 24.1158 20.8839C24.3502 21.1183 24.6682 21.25 24.9997 21.25H31.6663ZM32.9163 15C32.9163 15.3315 32.7846 15.6495 32.5502 15.8839C32.3158 16.1183 31.9979 16.25 31.6663 16.25H23.333C23.0015 16.25 22.6835 16.1183 22.4491 15.8839C22.2147 15.6495 22.083 15.3315 22.083 15C22.083 14.6685 22.2147 14.3505 22.4491 14.1161C22.6835 13.8817 23.0015 13.75 23.333 13.75H31.6663C31.9979 13.75 32.3158 13.8817 32.5502 14.1161C32.7846 14.3505 32.9163 14.6685 32.9163 15ZM31.6663 26.25C31.9979 26.25 32.3158 26.1183 32.5502 25.8839C32.7846 25.6495 32.9163 25.3315 32.9163 25C32.9163 24.6685 32.7846 24.3505 32.5502 24.1161C32.3158 23.8817 31.9979 23.75 31.6663 23.75H26.6663C26.3348 23.75 26.0169 23.8817 25.7825 24.1161C25.548 24.3505 25.4163 24.6685 25.4163 25C25.4163 25.3315 25.548 25.6495 25.7825 25.8839C26.0169 26.1183 26.3348 26.25 26.6663 26.25H31.6663Z" fill="#424242"/>
<path fill-rule="evenodd" clip-rule="evenodd" d="M16.5733 5.41602H23.4266C26.49 5.41602 28.9166 5.41602 30.815 5.67102C32.7683 5.93435 34.35 6.48768 35.5983 7.73435C36.845 8.98268 37.3983 10.5643 37.6616 12.5177C37.9166 14.4177 37.9166 16.8427 37.9166 19.906V20.0927C37.9166 23.156 37.9166 25.5827 37.6616 27.481C37.3983 29.4343 36.845 31.016 35.5983 32.2643C34.35 33.511 32.7683 34.0643 30.815 34.3277C28.915 34.5827 26.49 34.5827 23.4266 34.5827H16.575C13.5116 34.5827 11.085 34.5827 9.18663 34.3277C7.23329 34.0643 5.65163 33.511 4.40329 32.2643C3.15663 31.016 2.60329 29.4343 2.33996 27.481C2.08496 25.581 2.08496 23.156 2.08496 20.0927V19.906C2.08496 16.8427 2.08496 14.416 2.33996 12.5177C2.60329 10.5643 3.15663 8.98268 4.40329 7.73435C5.65163 6.48768 7.23329 5.93435 9.18663 5.67102C11.0866 5.41602 13.51 5.41602 16.5733 5.41602ZM9.51663 8.14935C7.83996 8.37435 6.87329 8.79768 6.16663 9.50268C5.46329 10.2077 5.03996 11.1743 4.81496 12.851C4.58496 14.5643 4.58163 16.821 4.58163 19.9993C4.58163 23.1777 4.58496 25.436 4.81496 27.1493C5.03996 28.8244 5.46329 29.791 6.16829 30.496C6.87329 31.201 7.83996 31.6243 9.51663 31.8493C11.23 32.0793 13.4866 32.0827 16.665 32.0827H23.3316C26.51 32.0827 28.7683 32.0793 30.4816 31.8493C32.1566 31.6243 33.1233 31.201 33.8283 30.496C34.5333 29.791 34.9566 28.8243 35.1816 27.1477C35.4116 25.4343 35.415 23.1777 35.415 19.9993C35.415 16.821 35.4116 14.5643 35.1816 12.8493C34.9566 11.1743 34.5333 10.2077 33.8283 9.50268C33.1233 8.79768 32.1566 8.37435 30.48 8.14935C28.7683 7.91935 26.51 7.91602 23.3316 7.91602H16.665C13.4866 7.91602 11.2316 7.91935 9.51663 8.14935Z" fill="#424242"/>
</svg>
